<svg id="svg" version="1.1" xmlns="http://www.w3.org/2000/svg" xmlns:xlink="http://www.w3.org/1999/xlink" width="400" height="459.5600676818951" viewBox="0, 0, 400,459.5600676818951"><g id="svgg"><path id="path0" d="M185.944 18.338 C 177.696 25.441,168.943 33.817,156.802 46.220 C 141.800 61.547,134.563 68.229,126.364 74.326 C 111.841 85.126,95.114 91.728,76.819 93.882 C 74.306 94.178,71.565 94.500,70.728 94.599 C 69.890 94.697,65.331 94.928,60.596 95.112 C 55.861 95.296,51.959 95.481,51.924 95.524 C 51.659 95.845,50.680 111.633,50.440 119.459 C 48.961 167.637,59.030 207.230,81.087 239.971 C 94.509 259.895,106.485 272.686,140.609 303.543 C 166.120 326.611,177.897 338.657,189.926 353.983 L 190.850 355.161 191.618 354.149 C 200.448 342.509,217.866 324.457,236.203 307.938 C 275.174 272.832,287.753 259.513,300.951 239.383 C 318.639 212.403,327.385 185.699,330.696 148.562 C 331.696 137.344,330.898 97.004,329.650 95.687 C 329.519 95.548,325.611 95.283,320.966 95.098 C 280.039 93.464,262.582 84.652,225.677 46.996 C 211.471 32.501,194.179 16.237,191.190 14.559 C 190.800 14.340,189.489 15.285,185.944 18.338 M196.225 27.983 C 199.139 30.532,209.594 40.706,219.459 50.592 C 240.280 71.460,246.295 76.843,256.019 83.308 C 273.251 94.765,292.898 100.817,315.736 101.702 C 318.435 101.807,321.265 101.967,322.026 102.059 L 323.409 102.225 323.804 108.219 C 327.960 171.448,313.817 217.975,278.366 257.697 C 268.375 268.891,260.991 276.059,236.210 298.617 C 213.663 319.141,203.630 329.076,193.888 340.525 C 190.503 344.502,191.166 344.502,187.807 340.525 C 178.651 329.681,167.862 319.036,144.501 297.795 C 127.544 282.377,118.097 273.442,111.198 266.297 C 77.507 231.404,61.972 197.004,57.798 148.054 C 57.202 141.054,57.220 116.009,57.828 108.220 L 58.296 102.228 59.689 102.060 C 60.456 101.967,63.340 101.803,66.098 101.695 C 87.820 100.842,107.616 94.987,123.689 84.662 C 134.147 77.942,140.811 72.034,162.990 49.818 C 176.801 35.985,190.070 23.361,190.810 23.352 C 190.875 23.351,193.311 25.435,196.225 27.983 M184.928 58.118 C 181.724 60.876,173.130 69.128,165.480 76.792 C 144.818 97.490,140.828 100.784,129.330 106.627 C 117.678 112.549,107.324 114.656,85.787 115.488 L 83.756 115.567 83.284 120.474 C 82.641 127.148,82.573 153.491,83.183 159.560 C 87.659 204.123,103.124 231.931,143.982 268.880 C 169.095 291.590,180.469 303.025,189.926 315.067 L 190.850 316.244 191.618 315.228 C 198.634 305.944,211.259 292.947,228.154 277.613 C 247.090 260.425,254.296 253.423,262.228 244.501 C 288.516 214.933,299.952 181.501,299.040 136.887 C 298.852 127.658,298.473 120.668,297.954 116.836 L 297.759 115.398 294.988 115.394 C 278.494 115.375,264.258 112.503,252.961 106.916 C 241.522 101.259,236.831 97.427,216.751 77.332 C 204.370 64.941,193.385 54.705,191.078 53.407 C 190.832 53.269,188.380 55.147,184.928 58.118 M194.372 65.218 C 196.258 66.841,204.122 74.493,211.848 82.223 C 243.312 113.703,254.971 119.765,288.396 122.025 C 291.979 122.267,291.583 121.174,292.064 132.166 C 293.732 170.359,285.721 201.300,267.535 226.904 C 258.450 239.693,248.958 249.508,223.012 272.939 C 212.992 281.987,198.619 296.154,194.098 301.438 C 190.515 305.627,191.175 305.627,187.605 301.438 C 183.443 296.554,169.305 282.529,161.083 275.126 C 127.563 244.948,116.573 232.814,106.672 215.049 C 97.086 197.846,92.217 181.094,89.956 157.530 C 89.489 152.657,89.460 131.325,89.913 125.719 L 90.186 122.335 93.232 122.080 C 102.837 121.276,107.222 120.758,111.073 119.972 C 125.937 116.939,137.367 111.475,149.915 101.403 C 151.311 100.283,159.230 92.633,167.513 84.404 C 180.037 71.961,190.242 62.267,190.818 62.267 C 190.887 62.267,192.487 63.595,194.372 65.218 M186.125 140.264 C 186.125 142.755,186.110 142.799,185.195 142.985 C 178.345 144.375,174.172 146.945,170.956 151.753 C 164.219 161.826,168.061 175.906,178.849 180.679 C 182.557 182.319,183.469 182.478,190.525 182.712 C 197.130 182.931,197.559 182.986,199.492 183.873 C 209.740 188.573,209.482 203.641,199.081 207.839 C 197.164 208.613,196.850 208.632,184.010 208.729 L 170.897 208.828 170.897 212.191 L 170.897 215.554 178.426 215.645 L 185.956 215.736 186.055 218.359 L 186.154 220.981 189.524 220.981 L 192.893 220.981 192.893 218.274 L 192.893 215.567 194.839 215.562 C 214.778 215.511,221.379 187.232,203.548 178.256 C 199.935 176.437,198.993 176.255,191.709 175.973 C 186.109 175.757,184.626 175.591,183.120 175.012 C 171.746 170.642,171.683 155.053,183.021 150.533 C 184.874 149.794,185.386 149.763,197.716 149.647 L 210.491 149.527 210.491 146.168 L 210.491 142.809 201.692 142.809 L 192.893 142.809 192.893 140.271 L 192.893 137.733 189.509 137.733 L 186.125 137.733 186.125 140.264 M249.408 377.526 C 246.868 378.610,247.055 376.142,247.046 408.746 C 247.039 437.512,247.050 437.982,247.721 438.925 C 248.758 440.381,250.457 440.817,252.319 440.106 C 254.851 439.139,254.822 439.313,254.822 425.056 L 254.822 412.515 271.997 412.603 L 289.171 412.690 289.340 425.381 C 289.433 432.360,289.636 438.328,289.792 438.643 C 290.937 440.965,295.412 440.906,296.629 438.554 C 297.440 436.985,297.364 380.376,296.549 378.996 C 295.299 376.881,292.162 376.587,290.335 378.414 L 289.340 379.409 289.340 392.243 L 289.340 405.076 272.081 405.076 L 254.822 405.076 254.822 392.412 L 254.822 379.747 253.961 378.724 C 253.184 377.800,252.738 377.554,251.100 377.147 C 250.821 377.077,250.059 377.248,249.408 377.526 M351.405 377.633 C 350.642 377.979,349.696 378.715,349.303 379.266 C 347.987 381.114,325.212 435.479,325.212 436.772 C 325.212 440.142,329.556 441.666,331.939 439.130 C 332.354 438.688,334.023 435.148,335.647 431.262 L 338.602 424.196 354.037 424.108 L 369.471 424.020 370.995 427.662 C 371.832 429.664,373.228 433.001,374.096 435.076 C 375.804 439.159,376.343 439.860,378.063 440.242 C 380.417 440.764,382.596 439.399,382.956 437.177 C 383.176 435.824,360.440 381.529,358.744 379.357 C 356.939 377.045,354.145 376.388,351.405 377.633 M46.174 377.651 C 45.792 377.806,45.031 378.444,44.482 379.069 C 43.099 380.646,19.966 435.330,19.966 437.023 C 19.966 439.090,21.490 440.440,23.822 440.440 C 26.525 440.440,26.897 439.935,30.426 431.472 L 33.460 424.196 48.832 424.108 L 64.203 424.020 66.841 430.369 C 70.265 438.608,70.552 439.158,71.841 439.944 C 74.462 441.542,77.834 439.752,77.834 436.762 C 77.834 435.668,54.647 380.874,53.578 379.441 C 52.147 377.524,48.604 376.667,46.174 377.651 M107.405 377.973 C 105.557 379.100,105.583 378.668,105.599 407.919 C 105.616 439.026,105.484 437.725,108.798 439.544 C 109.872 440.133,139.941 440.608,143.465 440.092 C 146.535 439.642,148.120 436.673,146.633 434.157 C 145.483 432.209,144.941 432.149,128.589 432.149 L 113.706 432.149 113.704 406.176 C 113.703 380.814,113.687 380.177,113.027 379.095 C 111.915 377.270,109.385 376.765,107.405 377.973 M173.707 378.327 C 171.852 379.458,171.870 379.117,171.980 409.871 L 172.081 438.186 172.876 439.032 C 174.678 440.949,177.255 440.963,179.039 439.065 L 179.865 438.187 179.963 427.723 L 180.062 417.259 190.115 417.247 C 208.680 417.225,215.462 414.247,219.171 404.487 C 223.642 392.725,216.703 380.895,203.839 378.346 C 198.678 377.324,175.377 377.309,173.707 378.327 M203.907 385.889 C 213.348 388.984,215.378 401.848,207.276 407.244 C 204.088 409.367,202.563 409.598,190.778 409.737 L 180.034 409.864 180.034 397.459 L 180.034 385.054 191.117 385.192 C 200.244 385.305,202.501 385.428,203.907 385.889 M54.980 401.973 C 58.243 409.834,60.914 416.413,60.914 416.593 C 60.914 416.798,56.421 416.920,48.900 416.920 C 39.456 416.920,36.887 416.829,36.887 416.494 C 36.887 416.259,39.448 409.901,42.579 402.365 C 45.710 394.829,48.378 388.375,48.509 388.023 C 48.847 387.113,48.494 386.352,54.980 401.973 M360.393 402.318 C 363.590 410.014,366.142 416.373,366.065 416.451 C 365.988 416.528,360.518 416.551,353.911 416.502 L 341.896 416.413 347.585 402.707 C 354.601 385.805,353.968 387.207,354.307 387.825 C 354.458 388.100,357.197 394.622,360.393 402.318 " stroke="none" fill="#f7f832" fill-rule="evenodd"></path><path id="path1" d="M0.000 229.780 L 0.000 459.560 200.000 459.560 L 400.000 459.560 400.000 229.780 L 400.000 0.000 200.000 0.000 L 0.000 0.000 0.000 229.780 M198.195 20.030 C 202.603 23.878,212.284 33.188,224.027 44.871 C 234.357 55.149,244.103 64.690,245.685 66.073 C 268.230 85.788,289.720 93.845,321.905 94.652 C 328.871 94.827,329.956 94.925,330.095 95.396 C 331.330 99.596,332.004 138.443,331.029 149.239 C 326.261 202.035,309.319 237.599,270.407 276.496 C 261.947 284.953,256.289 290.213,231.297 312.860 C 216.071 326.657,203.463 339.912,192.114 354.054 L 190.830 355.654 186.888 350.839 C 174.107 335.226,165.663 326.689,140.102 303.538 C 123.493 288.495,116.101 281.523,107.953 273.211 C 70.806 235.322,53.610 196.620,50.391 143.655 C 49.702 132.320,50.509 101.073,51.635 95.516 C 51.787 94.765,51.862 94.755,57.149 94.755 C 84.720 94.755,107.626 87.825,126.308 73.832 C 134.009 68.064,138.237 64.181,153.983 48.417 C 173.524 28.855,189.506 13.875,190.836 13.875 C 191.006 13.875,194.317 16.645,198.195 20.030 M185.279 28.525 C 182.301 31.140,171.870 41.296,162.098 51.095 C 140.338 72.917,135.227 77.490,125.212 84.096 C 108.083 95.393,90.068 100.842,65.325 102.207 C 61.702 102.407,58.714 102.602,58.684 102.639 C 58.417 102.980,57.800 115.208,57.639 123.350 C 56.675 172.166,67.805 210.782,92.292 243.581 C 103.642 258.783,115.304 270.773,144.847 297.614 C 166.697 317.466,178.592 329.222,188.419 340.679 L 190.801 343.456 197.008 336.469 C 206.063 326.276,215.515 316.971,232.490 301.543 C 269.810 267.622,280.759 256.213,293.013 238.472 C 315.166 206.402,324.858 170.917,324.086 124.704 C 323.920 114.761,323.368 102.960,323.054 102.638 C 323.017 102.600,319.946 102.401,316.231 102.196 C 291.400 100.828,273.353 95.308,256.007 83.776 C 246.246 77.287,241.491 73.039,220.981 52.481 C 206.885 38.351,194.803 26.858,191.201 24.153 C 190.788 23.842,189.690 24.653,185.279 28.525 M196.150 57.100 C 198.919 59.469,208.342 68.499,217.090 77.166 C 225.838 85.832,234.594 94.225,236.548 95.815 C 252.684 108.948,269.711 114.706,292.441 114.718 L 298.079 114.721 298.269 115.990 C 300.914 133.718,299.202 166.786,294.717 184.602 C 286.329 217.919,272.368 237.838,231.141 275.306 C 212.113 292.599,202.036 302.812,193.381 313.573 L 190.826 316.749 187.737 312.943 C 178.158 301.138,169.271 292.254,145.516 270.733 C 107.914 236.668,93.474 214.461,85.804 178.906 C 82.235 162.360,81.263 136.757,83.438 116.545 L 83.624 114.815 91.643 114.629 C 108.084 114.248,120.120 111.288,132.149 104.666 C 141.305 99.625,145.773 95.838,164.805 76.989 C 178.897 63.033,189.907 52.792,190.821 52.792 C 190.983 52.792,193.380 54.730,196.150 57.100 M186.971 65.913 C 184.924 67.693,177.081 75.344,169.543 82.915 C 154.700 97.822,151.590 100.714,145.774 105.018 C 131.393 115.658,116.641 120.841,96.876 122.197 C 92.655 122.486,90.672 122.749,90.563 123.035 C 88.890 127.394,89.993 160.180,92.230 172.589 C 98.797 209.013,112.628 230.705,152.109 266.499 C 172.222 284.735,179.666 291.948,186.971 300.287 L 190.694 304.536 192.386 302.765 C 193.316 301.791,196.360 298.509,199.149 295.471 C 204.655 289.474,213.625 280.911,227.919 268.008 C 264.182 235.273,277.693 216.477,286.288 186.802 C 290.921 170.810,292.911 148.448,291.593 127.218 L 291.308 122.626 284.994 122.205 C 262.076 120.679,245.260 113.801,228.765 99.208 C 227.183 97.808,219.264 90.093,211.168 82.064 C 198.548 69.548,193.677 64.911,191.201 63.056 C 190.790 62.748,189.989 63.288,186.971 65.913 M193.232 139.932 L 193.232 142.470 202.030 142.470 L 210.829 142.470 210.829 146.351 L 210.829 150.231 197.547 150.327 L 184.264 150.423 182.064 151.475 C 172.489 156.054,172.447 169.317,181.992 174.016 C 184.206 175.106,184.245 175.111,191.008 175.346 C 195.821 175.512,198.343 175.746,199.662 176.148 C 214.495 180.668,219.458 199.115,208.704 209.760 C 204.454 213.968,201.540 215.299,194.839 216.094 L 193.232 216.285 193.232 218.802 L 193.232 221.320 189.509 221.320 L 185.787 221.320 185.787 218.782 L 185.787 216.244 178.342 216.244 L 170.897 216.244 170.897 212.352 L 170.897 208.460 182.487 208.458 C 188.862 208.457,194.964 208.311,196.048 208.134 C 208.518 206.091,210.839 189.693,199.415 184.347 C 197.205 183.313,197.063 183.293,190.210 183.063 C 180.729 182.745,177.400 181.502,172.685 176.517 C 161.936 165.152,168.185 145.715,183.520 142.822 L 185.787 142.394 185.787 139.894 L 185.787 137.394 189.509 137.394 L 193.232 137.394 193.232 139.932 M50.833 377.002 C 53.440 377.726,53.721 378.287,66.035 407.276 C 72.361 422.166,77.706 434.977,77.913 435.744 C 78.664 438.522,76.882 440.778,73.937 440.778 C 71.122 440.778,70.625 440.110,67.114 431.608 L 64.129 424.380 48.900 424.375 L 33.672 424.369 30.688 431.602 C 27.172 440.123,26.683 440.778,23.842 440.778 C 21.285 440.778,19.790 439.364,19.811 436.965 C 19.827 435.055,42.724 380.540,44.288 378.687 C 45.740 376.966,48.316 376.303,50.833 377.002 M111.907 377.505 C 113.977 378.862,113.866 377.330,113.968 405.822 L 114.060 431.810 129.128 431.810 C 145.760 431.810,145.570 431.788,146.883 433.942 C 147.733 435.335,147.724 437.098,146.861 438.514 C 145.559 440.650,145.633 440.643,126.607 440.536 L 109.425 440.440 108.199 439.600 C 105.400 437.681,105.584 439.908,105.584 407.868 L 105.584 379.448 106.316 378.517 C 107.738 376.709,110.053 376.291,111.907 377.505 M253.364 377.507 C 255.071 378.625,255.161 379.375,255.161 392.544 L 255.161 404.738 272.081 404.738 L 289.002 404.738 289.002 392.267 C 289.002 379.842,289.005 379.791,289.774 378.646 C 291.449 376.153,295.011 376.159,296.695 378.658 L 297.462 379.796 297.457 408.764 C 297.452 440.320,297.550 438.768,295.461 440.176 C 294.059 441.121,292.567 441.158,291.133 440.284 C 289.017 438.994,289.002 438.888,289.002 425.228 L 289.002 412.860 272.081 412.860 L 255.161 412.860 255.159 425.296 C 255.158 437.034,255.121 437.794,254.498 438.816 C 253.035 441.215,249.898 441.594,247.917 439.613 L 246.870 438.566 246.783 409.215 C 246.698 380.259,246.706 379.850,247.382 378.746 C 248.611 376.739,251.332 376.175,253.364 377.507 M356.917 377.308 C 358.978 378.244,358.839 377.955,371.578 407.953 C 385.074 439.734,384.880 439.024,380.489 440.577 C 377.146 441.759,376.095 440.602,372.393 431.668 L 369.374 424.381 354.114 424.373 L 338.855 424.365 336.037 431.218 C 334.488 434.987,332.929 438.492,332.573 439.007 C 330.186 442.459,325.021 440.939,325.058 436.796 C 325.075 434.991,325.128 434.862,346.707 384.095 C 349.704 377.044,352.395 375.255,356.917 377.308 M199.662 377.335 C 215.604 378.734,224.151 390.284,219.499 404.142 C 216.074 414.344,209.966 417.292,191.794 417.513 L 180.372 417.652 180.372 427.528 C 180.372 436.454,180.312 437.518,179.751 438.584 C 178.192 441.545,173.903 441.685,172.341 438.827 C 171.723 437.696,171.192 386.152,171.750 381.469 C 171.999 379.376,173.124 377.825,174.732 377.359 C 176.204 376.933,194.874 376.915,199.662 377.335 M180.372 397.498 L 180.372 409.547 190.778 409.404 C 201.129 409.261,201.199 409.255,203.982 408.306 C 212.542 405.386,214.971 395.124,208.527 389.097 C 205.195 385.980,202.595 385.476,189.763 385.460 L 180.372 385.448 180.372 397.498 M48.440 388.870 C 48.270 389.315,45.677 395.602,42.678 402.843 C 39.679 410.083,37.225 416.137,37.225 416.295 C 37.225 416.453,42.497 416.582,48.940 416.582 C 59.935 416.582,60.644 416.546,60.487 415.990 C 60.256 415.175,49.089 388.401,48.901 388.213 C 48.818 388.130,48.611 388.426,48.440 388.870 M353.878 388.387 C 353.587 388.870,342.470 415.809,342.470 416.031 C 342.470 416.148,347.740 416.244,354.182 416.244 C 363.414 416.244,365.858 416.154,365.727 415.821 C 361.893 406.061,354.100 388.018,353.878 388.387 " stroke="none" fill="#040404" fill-rule="evenodd"></path><path id="path2" d="M176.970 25.973 L 175.804 27.242 177.073 26.076 C 178.254 24.990,178.497 24.704,178.239 24.704 C 178.182 24.704,177.611 25.275,176.970 25.973 M204.399 25.825 C 204.399 25.883,204.894 26.378,205.499 26.925 L 206.599 27.919 205.605 26.819 C 204.679 25.794,204.399 25.564,204.399 25.825 M170.715 31.895 L 169.036 33.672 170.812 31.992 C 171.789 31.069,172.589 30.269,172.589 30.216 C 172.589 29.963,172.275 30.244,170.715 31.895 M211.168 32.318 C 212.367 33.528,213.424 34.518,213.517 34.518 C 213.610 34.518,212.705 33.528,211.506 32.318 C 210.307 31.108,209.250 30.118,209.157 30.118 C 209.064 30.118,209.968 31.108,211.168 32.318 M170.723 42.047 L 165.990 46.870 170.812 42.137 C 175.292 37.740,175.788 37.225,175.545 37.225 C 175.496 37.225,173.326 39.395,170.723 42.047 M223.350 44.501 C 224.924 46.083,226.288 47.377,226.381 47.377 C 226.474 47.377,225.263 46.083,223.689 44.501 C 222.115 42.919,220.751 41.624,220.658 41.624 C 220.565 41.624,221.776 42.919,223.350 44.501 M157.351 45.262 L 155.161 47.547 157.445 45.357 C 159.567 43.323,159.884 42.978,159.635 42.978 C 159.583 42.978,158.555 44.006,157.351 45.262 M224.196 55.838 C 226.051 57.699,227.644 59.222,227.737 59.222 C 227.830 59.222,226.389 57.699,224.535 55.838 C 222.680 53.976,221.087 52.453,220.994 52.453 C 220.901 52.453,222.342 53.976,224.196 55.838 M151.946 61.083 C 150.559 62.479,149.501 63.621,149.594 63.621 C 149.687 63.621,150.898 62.479,152.284 61.083 C 153.671 59.687,154.729 58.545,154.636 58.545 C 154.543 58.545,153.332 59.687,151.946 61.083 M180.520 61.675 L 179.526 62.775 180.626 61.781 C 181.231 61.234,181.726 60.739,181.726 60.681 C 181.726 60.420,181.447 60.650,180.520 61.675 M200.000 60.681 C 200.000 60.739,200.495 61.234,201.100 61.781 L 202.200 62.775 201.206 61.675 C 200.279 60.650,200.000 60.420,200.000 60.681 M233.333 64.975 C 234.250 65.905,235.076 66.667,235.169 66.667 C 235.262 66.667,234.588 65.905,233.672 64.975 C 232.755 64.044,231.929 63.283,231.836 63.283 C 231.743 63.283,232.417 64.044,233.333 64.975 M169.540 72.335 L 162.606 79.357 169.628 72.423 C 173.490 68.609,176.650 65.449,176.650 65.401 C 176.650 65.160,175.983 65.811,169.540 72.335 M212.014 72.420 C 215.919 76.328,219.190 79.526,219.283 79.526 C 219.376 79.526,216.257 76.328,212.352 72.420 C 208.447 68.511,205.175 65.313,205.082 65.313 C 204.989 65.313,208.108 68.511,212.014 72.420 M199.154 70.051 C 199.881 70.795,200.552 71.404,200.645 71.404 C 200.738 71.404,200.219 70.795,199.492 70.051 C 198.765 69.306,198.094 68.697,198.001 68.697 C 197.908 68.697,198.427 69.306,199.154 70.051 M218.443 89.340 C 221.231 92.132,223.587 94.416,223.680 94.416 C 223.773 94.416,221.569 92.132,218.782 89.340 C 215.995 86.548,213.638 84.264,213.545 84.264 C 213.452 84.264,215.656 86.548,218.443 89.340 M229.442 89.848 C 230.073 90.499,230.666 91.032,230.759 91.032 C 230.852 91.032,230.411 90.499,229.780 89.848 C 229.149 89.196,228.556 88.663,228.463 88.663 C 228.370 88.663,228.810 89.196,229.442 89.848 M151.589 90.271 L 150.423 91.540 151.692 90.374 C 152.390 89.732,152.961 89.161,152.961 89.105 C 152.961 88.846,152.675 89.090,151.589 90.271 M58.808 95.003 C 59.604 95.074,60.822 95.073,61.515 95.001 C 62.208 94.928,61.557 94.869,60.068 94.871 C 58.579 94.872,58.012 94.931,58.808 95.003 M320.398 95.003 C 321.194 95.074,322.412 95.073,323.105 95.001 C 323.798 94.928,323.147 94.869,321.658 94.871 C 320.169 94.872,319.602 94.931,320.398 95.003 M65.398 102.095 C 65.723 102.180,66.256 102.180,66.582 102.095 C 66.908 102.009,66.641 101.940,65.990 101.940 C 65.338 101.940,65.072 102.009,65.398 102.095 M315.144 102.095 C 315.470 102.180,316.003 102.180,316.328 102.095 C 316.654 102.009,316.387 101.940,315.736 101.940 C 315.085 101.940,314.818 102.009,315.144 102.095 M93.147 114.963 C 93.659 115.041,94.497 115.041,95.008 114.963 C 95.520 114.886,95.102 114.822,94.078 114.822 C 93.054 114.822,92.635 114.886,93.147 114.963 M286.717 114.963 C 287.229 115.041,288.067 115.041,288.579 114.963 C 289.091 114.886,288.672 114.822,287.648 114.822 C 286.624 114.822,286.206 114.886,286.717 114.963 M323.936 115.736 C 323.936 116.387,324.006 116.654,324.091 116.328 C 324.176 116.003,324.176 115.470,324.091 115.144 C 324.006 114.818,323.936 115.085,323.936 115.736 M331.414 120.643 C 331.415 121.946,331.477 122.437,331.550 121.735 C 331.623 121.033,331.622 119.967,331.547 119.366 C 331.472 118.766,331.412 119.340,331.414 120.643 M57.307 123.689 C 57.308 125.178,57.368 125.745,57.439 124.949 C 57.511 124.153,57.510 122.935,57.437 122.241 C 57.364 121.548,57.306 122.200,57.307 123.689 M289.598 122.405 C 290.019 122.486,290.628 122.483,290.951 122.398 C 291.275 122.314,290.931 122.247,290.186 122.251 C 289.442 122.255,289.177 122.324,289.598 122.405 M291.787 130.964 C 291.787 131.616,291.857 131.882,291.942 131.557 C 292.027 131.231,292.027 130.698,291.942 130.372 C 291.857 130.047,291.787 130.313,291.787 130.964 M331.408 133.841 C 331.410 134.958,331.473 135.374,331.548 134.766 C 331.623 134.157,331.622 133.244,331.545 132.735 C 331.467 132.227,331.406 132.724,331.408 133.841 M57.277 134.179 C 57.280 134.924,57.350 135.189,57.431 134.768 C 57.511 134.347,57.508 133.738,57.424 133.414 C 57.339 133.090,57.273 133.435,57.277 134.179 M299.251 138.240 C 299.253 139.171,299.319 139.511,299.397 138.997 C 299.475 138.483,299.473 137.721,299.392 137.305 C 299.312 136.889,299.248 137.310,299.251 138.240 M189.241 137.640 L 192.864 137.755 192.986 140.028 L 193.107 142.301 193.085 139.932 L 193.063 137.563 189.340 137.545 L 185.618 137.526 189.241 137.640 M89.442 143.486 C 89.442 144.509,89.505 144.928,89.582 144.416 C 89.660 143.904,89.660 143.067,89.582 142.555 C 89.505 142.043,89.442 142.462,89.442 143.486 M197.716 142.723 C 200.089 142.781,203.972 142.781,206.345 142.723 C 208.718 142.665,206.777 142.617,202.030 142.617 C 197.284 142.617,195.343 142.665,197.716 142.723 M299.246 145.854 C 299.246 146.692,299.312 147.035,299.393 146.616 C 299.473 146.197,299.473 145.512,299.393 145.093 C 299.312 144.674,299.246 145.017,299.246 145.854 M82.326 147.208 C 82.326 148.046,82.392 148.388,82.472 147.970 C 82.553 147.551,82.553 146.865,82.472 146.447 C 82.392 146.028,82.326 146.371,82.326 147.208 M167.276 162.775 C 167.276 163.799,167.339 164.217,167.417 163.706 C 167.494 163.194,167.494 162.356,167.417 161.844 C 167.339 161.332,167.276 161.751,167.276 162.775 M185.871 182.974 C 186.197 183.060,186.730 183.060,187.056 182.974 C 187.382 182.889,187.115 182.820,186.464 182.820 C 185.812 182.820,185.546 182.889,185.871 182.974 M176.543 208.713 C 179.742 208.769,185.072 208.769,188.388 208.714 C 191.703 208.658,189.086 208.613,182.572 208.613 C 176.058 208.612,173.345 208.658,176.543 208.713 M192.960 218.347 L 192.893 220.958 189.425 221.067 L 185.956 221.177 189.435 221.248 C 193.460 221.331,193.319 221.452,193.146 218.071 L 193.026 215.736 192.960 218.347 M124.859 250.846 C 126.261 252.340,126.565 252.609,126.565 252.355 C 126.565 252.300,125.842 251.577,124.958 250.747 L 123.350 249.239 124.859 250.846 M134.856 250.761 C 135.583 251.506,136.254 252.115,136.347 252.115 C 136.440 252.115,135.922 251.506,135.195 250.761 C 134.468 250.017,133.797 249.408,133.704 249.408 C 133.611 249.408,134.129 250.017,134.856 250.761 M253.960 253.553 L 252.623 254.992 254.061 253.654 C 255.398 252.410,255.655 252.115,255.399 252.115 C 255.343 252.115,254.696 252.762,253.960 253.553 M239.065 257.953 L 238.071 259.052 239.171 258.059 C 239.776 257.512,240.271 257.017,240.271 256.959 C 240.271 256.697,239.991 256.927,239.065 257.953 M249.069 258.376 C 248.247 259.213,247.651 259.898,247.744 259.898 C 247.837 259.898,248.586 259.213,249.408 258.376 C 250.230 257.538,250.826 256.853,250.733 256.853 C 250.640 256.853,249.891 257.538,249.069 258.376 M134.673 260.660 C 136.075 262.154,136.379 262.423,136.379 262.169 C 136.379 262.114,135.656 261.391,134.772 260.561 L 133.164 259.052 134.673 260.660 M107.276 262.035 C 107.276 262.093,107.771 262.588,108.376 263.135 L 109.475 264.129 108.482 263.029 C 107.555 262.004,107.276 261.773,107.276 262.035 M271.561 264.721 L 269.882 266.497 271.658 264.818 C 272.635 263.895,273.435 263.095,273.435 263.041 C 273.435 262.789,273.121 263.070,271.561 264.721 M108.291 273.604 C 109.302 274.628,110.205 275.465,110.298 275.465 C 110.391 275.465,109.640 274.628,108.629 273.604 C 107.618 272.580,106.715 271.743,106.622 271.743 C 106.529 271.743,107.280 272.580,108.291 273.604 M271.896 274.873 L 270.558 276.311 271.997 274.974 C 273.334 273.730,273.590 273.435,273.334 273.435 C 273.279 273.435,272.632 274.082,271.896 274.873 M258.533 277.750 L 256.684 279.695 258.629 277.846 C 260.437 276.127,260.730 275.804,260.479 275.804 C 260.426 275.804,259.551 276.679,258.533 277.750 M124.196 279.019 C 125.207 280.042,126.111 280.880,126.204 280.880 C 126.297 280.880,125.546 280.042,124.535 279.019 C 123.524 277.995,122.620 277.157,122.527 277.157 C 122.434 277.157,123.185 277.995,124.196 279.019 M164.467 277.940 C 164.467 277.998,164.962 278.493,165.567 279.040 L 166.667 280.034 165.673 278.934 C 164.746 277.909,164.467 277.679,164.467 277.940 M215.887 279.103 L 214.721 280.372 215.990 279.206 C 217.171 278.121,217.414 277.834,217.156 277.834 C 217.100 277.834,216.528 278.405,215.887 279.103 M267.491 279.272 L 266.497 280.372 267.597 279.378 C 268.202 278.832,268.697 278.337,268.697 278.278 C 268.697 278.017,268.418 278.247,267.491 279.272 M114.707 279.949 C 116.109 281.443,116.413 281.712,116.413 281.458 C 116.413 281.404,115.690 280.680,114.805 279.850 L 113.198 278.342 114.707 279.949 M171.235 284.433 C 171.867 285.085,172.459 285.618,172.552 285.618 C 172.645 285.618,172.205 285.085,171.574 284.433 C 170.942 283.782,170.349 283.249,170.256 283.249 C 170.163 283.249,170.604 283.782,171.235 284.433 M209.967 284.687 L 208.629 286.125 210.068 284.787 C 210.859 284.052,211.506 283.405,211.506 283.349 C 211.506 283.093,211.211 283.349,209.967 284.687 M164.467 288.092 C 164.467 288.151,164.962 288.646,165.567 289.192 L 166.667 290.186 165.673 289.086 C 164.746 288.061,164.467 287.831,164.467 288.092 M209.299 295.516 L 206.261 298.646 209.391 295.608 C 211.113 293.936,212.521 292.528,212.521 292.477 C 212.521 292.232,212.121 292.609,209.299 295.516 M181.387 294.522 C 181.387 294.580,181.882 295.075,182.487 295.622 L 183.587 296.616 182.593 295.516 C 181.667 294.491,181.387 294.261,181.387 294.522 M199.133 295.516 L 198.139 296.616 199.239 295.622 C 199.843 295.075,200.338 294.580,200.338 294.522 C 200.338 294.261,200.059 294.491,199.133 295.516 M177.665 301.290 C 177.665 301.349,178.160 301.843,178.765 302.390 L 179.865 303.384 178.871 302.284 C 177.944 301.259,177.665 301.029,177.665 301.290 M216.244 316.582 C 215.422 317.420,214.825 318.105,214.918 318.105 C 215.011 318.105,215.760 317.420,216.582 316.582 C 217.404 315.745,218.000 315.059,217.907 315.059 C 217.814 315.059,217.066 315.745,216.244 316.582 M170.558 321.997 C 173.439 324.882,175.872 327.242,175.965 327.242 C 176.058 327.242,173.777 324.882,170.897 321.997 C 168.016 319.112,165.583 316.751,165.490 316.751 C 165.397 316.751,167.678 319.112,170.558 321.997 M158.376 320.305 C 159.007 320.956,159.600 321.489,159.693 321.489 C 159.786 321.489,159.345 320.956,158.714 320.305 C 158.083 319.653,157.490 319.120,157.397 319.120 C 157.304 319.120,157.744 319.653,158.376 320.305 M205.076 327.750 C 204.254 328.587,203.658 329.272,203.751 329.272 C 203.844 329.272,204.593 328.587,205.415 327.750 C 206.237 326.912,206.833 326.227,206.740 326.227 C 206.647 326.227,205.898 326.912,205.076 327.750 M173.604 335.470 C 173.604 335.528,174.099 336.023,174.704 336.570 L 175.804 337.563 174.810 336.464 C 173.883 335.438,173.604 335.208,173.604 335.470 M206.578 336.802 L 205.584 337.902 206.684 336.908 C 207.288 336.361,207.783 335.866,207.783 335.808 C 207.783 335.547,207.504 335.777,206.578 336.802 M183.521 385.363 C 185.532 385.423,188.730 385.422,190.628 385.362 C 192.525 385.302,190.880 385.253,186.971 385.253 C 183.063 385.254,181.510 385.303,183.521 385.363 M196.193 385.349 C 196.612 385.429,197.297 385.429,197.716 385.349 C 198.135 385.268,197.792 385.202,196.954 385.202 C 196.117 385.202,195.774 385.268,196.193 385.349 M113.871 409.814 L 113.875 431.980 128.849 431.985 L 143.824 431.990 128.937 431.897 L 114.049 431.803 113.958 409.726 L 113.867 387.648 113.871 409.814 M263.536 404.991 C 268.236 405.044,275.926 405.044,280.626 404.991 C 285.326 404.938,281.481 404.895,272.081 404.895 C 262.682 404.895,258.837 404.938,263.536 404.991 M266.943 412.775 C 271.097 412.829,277.798 412.828,281.833 412.775 C 285.869 412.721,282.470 412.677,274.281 412.677 C 266.091 412.677,262.790 412.721,266.943 412.775 M198.223 417.498 C 198.642 417.578,199.327 417.578,199.746 417.498 C 200.165 417.417,199.822 417.351,198.985 417.351 C 198.147 417.351,197.805 417.417,198.223 417.498 M119.036 440.524 C 123.549 440.578,130.935 440.578,135.448 440.524 C 139.962 440.471,136.269 440.427,127.242 440.427 C 118.215 440.427,114.522 440.471,119.036 440.524 " stroke="none" fill="#5d5e16" fill-rule="evenodd"></path><path id="path3" d="M179.167 24.112 L 178.173 25.212 179.272 24.218 C 179.877 23.671,180.372 23.176,180.372 23.118 C 180.372 22.856,180.093 23.086,179.167 24.112 M202.876 24.704 C 203.603 25.448,204.274 26.058,204.367 26.058 C 204.461 26.058,203.942 25.448,203.215 24.704 C 202.488 23.959,201.817 23.350,201.724 23.350 C 201.631 23.350,202.149 23.959,202.876 24.704 M174.281 28.596 C 173.459 29.433,172.862 30.118,172.956 30.118 C 173.049 30.118,173.797 29.433,174.619 28.596 C 175.441 27.758,176.038 27.073,175.945 27.073 C 175.852 27.073,175.103 27.758,174.281 28.596 M207.769 29.188 C 208.599 30.072,209.322 30.795,209.377 30.795 C 209.631 30.795,209.362 30.491,207.868 29.089 L 206.261 27.580 207.769 29.188 M181.879 31.218 L 180.541 32.657 181.980 31.319 C 183.317 30.075,183.573 29.780,183.317 29.780 C 183.262 29.780,182.615 30.427,181.879 31.218 M200.508 32.149 C 201.424 33.080,202.250 33.841,202.343 33.841 C 202.436 33.841,201.763 33.080,200.846 32.149 C 199.929 31.218,199.103 30.457,199.010 30.457 C 198.917 30.457,199.591 31.218,200.508 32.149 M164.293 38.325 L 159.560 43.147 164.382 38.414 C 167.035 35.811,169.205 33.641,169.205 33.592 C 169.205 33.349,168.690 33.845,164.293 38.325 M177.145 35.618 L 175.465 37.394 177.242 35.715 C 178.219 34.791,179.019 33.992,179.019 33.938 C 179.019 33.686,178.705 33.967,177.145 35.618 M216.914 37.986 C 220.209 41.365,220.643 41.778,220.643 41.534 C 220.643 41.484,219.006 39.847,217.005 37.896 L 213.367 34.349 216.914 37.986 M212.521 43.824 C 217.451 48.756,221.560 52.792,221.653 52.792 C 221.746 52.792,217.789 48.756,212.860 43.824 C 207.930 38.892,203.820 34.856,203.727 34.856 C 203.634 34.856,207.591 38.892,212.521 43.824 M160.571 52.200 L 155.161 57.699 160.660 52.288 C 163.684 49.312,166.159 46.838,166.159 46.789 C 166.159 46.547,165.598 47.091,160.571 52.200 M233.164 54.653 C 237.349 58.841,240.849 62.267,240.942 62.267 C 241.035 62.267,237.687 58.841,233.503 54.653 C 229.318 50.465,225.818 47.039,225.725 47.039 C 225.632 47.039,228.979 50.465,233.164 54.653 M148.220 54.738 L 141.963 61.083 148.308 54.826 C 154.203 49.012,154.806 48.393,154.565 48.393 C 154.517 48.393,151.661 51.248,148.220 54.738 M229.611 61.252 C 230.716 62.369,231.696 63.283,231.789 63.283 C 231.882 63.283,231.054 62.369,229.949 61.252 C 228.844 60.135,227.864 59.222,227.771 59.222 C 227.678 59.222,228.506 60.135,229.611 61.252 M138.896 63.706 L 137.902 64.805 139.002 63.811 C 140.027 62.885,140.257 62.606,139.996 62.606 C 139.937 62.606,139.442 63.101,138.896 63.706 M178.003 64.129 C 177.181 64.966,176.585 65.651,176.678 65.651 C 176.771 65.651,177.520 64.966,178.342 64.129 C 179.164 63.291,179.760 62.606,179.667 62.606 C 179.574 62.606,178.825 63.291,178.003 64.129 M203.370 64.044 C 204.200 64.928,204.923 65.651,204.977 65.651 C 205.232 65.651,204.963 65.348,203.469 63.945 L 201.861 62.437 203.370 64.044 M243.486 64.636 C 244.213 65.381,244.884 65.990,244.977 65.990 C 245.070 65.990,244.551 65.381,243.824 64.636 C 243.097 63.892,242.426 63.283,242.333 63.283 C 242.240 63.283,242.759 63.892,243.486 64.636 M146.691 66.074 L 144.332 68.528 146.785 66.168 C 148.135 64.870,149.239 63.766,149.239 63.715 C 149.239 63.466,148.883 63.796,146.691 66.074 M236.548 67.851 C 237.559 68.875,238.462 69.712,238.556 69.712 C 238.649 69.712,237.898 68.875,236.887 67.851 C 235.876 66.827,234.972 65.990,234.879 65.990 C 234.786 65.990,235.537 66.827,236.548 67.851 M196.616 67.513 C 197.247 68.164,197.840 68.697,197.933 68.697 C 198.026 68.697,197.586 68.164,196.954 67.513 C 196.323 66.861,195.730 66.328,195.637 66.328 C 195.544 66.328,195.985 66.861,196.616 67.513 M168.696 83.333 L 154.484 97.631 168.782 83.419 C 176.646 75.603,183.080 69.169,183.080 69.122 C 183.080 68.883,181.905 70.044,168.696 83.333 M141.437 70.981 L 140.271 72.250 141.540 71.084 C 142.238 70.443,142.809 69.872,142.809 69.815 C 142.809 69.557,142.522 69.800,141.437 70.981 M207.276 77.834 C 211.181 81.743,214.453 84.941,214.546 84.941 C 214.639 84.941,211.520 81.743,207.614 77.834 C 203.709 73.926,200.438 70.728,200.344 70.728 C 200.251 70.728,203.370 73.926,207.276 77.834 M223.519 84.264 C 226.493 87.242,229.002 89.679,229.095 89.679 C 229.188 89.679,226.832 87.242,223.858 84.264 C 220.884 81.286,218.375 78.849,218.282 78.849 C 218.189 78.849,220.546 81.286,223.519 84.264 M157.530 84.602 C 155.302 86.836,153.555 88.663,153.648 88.663 C 153.742 88.663,155.640 86.836,157.868 84.602 C 160.096 82.369,161.842 80.541,161.749 80.541 C 161.656 80.541,159.757 82.369,157.530 84.602 M231.980 92.386 C 232.707 93.130,233.378 93.739,233.471 93.739 C 233.564 93.739,233.045 93.130,232.318 92.386 C 231.591 91.641,230.920 91.032,230.827 91.032 C 230.734 91.032,231.253 91.641,231.980 92.386 M149.386 92.470 L 148.393 93.570 149.492 92.576 C 150.097 92.030,150.592 91.535,150.592 91.476 C 150.592 91.215,150.313 91.445,149.386 92.470 M225.212 95.770 C 226.317 96.887,227.297 97.800,227.390 97.800 C 227.483 97.800,226.655 96.887,225.550 95.770 C 224.445 94.653,223.465 93.739,223.371 93.739 C 223.278 93.739,224.106 94.653,225.212 95.770 M72.504 94.311 C 72.830 94.396,73.363 94.396,73.689 94.311 C 74.014 94.226,73.748 94.156,73.096 94.156 C 72.445 94.156,72.179 94.226,72.504 94.311 M308.037 94.311 C 308.363 94.396,308.896 94.396,309.222 94.311 C 309.547 94.226,309.281 94.156,308.629 94.156 C 307.978 94.156,307.712 94.226,308.037 94.311 M68.782 94.650 C 69.107 94.735,69.640 94.735,69.966 94.650 C 70.292 94.564,70.025 94.495,69.374 94.495 C 68.723 94.495,68.456 94.564,68.782 94.650 M311.760 94.650 C 312.085 94.735,312.618 94.735,312.944 94.650 C 313.270 94.564,313.003 94.495,312.352 94.495 C 311.701 94.495,311.434 94.564,311.760 94.650 M63.542 95.000 C 64.151 95.075,65.064 95.074,65.573 94.996 C 66.081 94.919,65.584 94.858,64.467 94.860 C 63.350 94.861,62.934 94.925,63.542 95.000 M316.334 95.000 C 316.943 95.075,317.856 95.074,318.365 94.996 C 318.873 94.919,318.376 94.858,317.259 94.860 C 316.142 94.861,315.726 94.925,316.334 95.000 M52.700 95.337 C 53.300 95.412,54.366 95.413,55.069 95.340 C 55.771 95.267,55.279 95.206,53.976 95.204 C 52.673 95.203,52.099 95.263,52.700 95.337 M326.058 95.294 C 327.665 95.552,329.949 95.585,329.949 95.349 C 329.949 95.208,328.921 95.114,327.665 95.139 C 326.409 95.164,325.685 95.234,326.058 95.294 M304.653 101.079 C 304.979 101.164,305.512 101.164,305.838 101.079 C 306.163 100.994,305.897 100.925,305.245 100.925 C 304.594 100.925,304.327 100.994,304.653 101.079 M72.677 101.424 C 73.098 101.505,73.707 101.502,74.031 101.417 C 74.355 101.332,74.010 101.266,73.266 101.270 C 72.521 101.274,72.256 101.343,72.677 101.424 M307.872 101.424 C 308.293 101.505,308.902 101.502,309.226 101.417 C 309.549 101.332,309.205 101.266,308.460 101.270 C 307.716 101.274,307.451 101.343,307.872 101.424 M68.105 101.765 C 68.617 101.843,69.454 101.843,69.966 101.765 C 70.478 101.688,70.059 101.624,69.036 101.624 C 68.012 101.624,67.593 101.688,68.105 101.765 M311.760 101.765 C 312.272 101.843,313.109 101.843,313.621 101.765 C 314.133 101.688,313.714 101.624,312.690 101.624 C 311.667 101.624,311.248 101.688,311.760 101.765 M60.829 102.109 C 61.620 102.180,62.915 102.180,63.706 102.109 C 64.497 102.038,63.849 101.979,62.267 101.979 C 60.685 101.979,60.038 102.038,60.829 102.109 M318.020 102.109 C 318.811 102.180,320.106 102.180,320.897 102.109 C 321.688 102.038,321.041 101.979,319.459 101.979 C 317.876 101.979,317.229 102.038,318.020 102.109 M323.598 107.614 C 323.598 108.266,323.668 108.532,323.753 108.206 C 323.838 107.881,323.838 107.348,323.753 107.022 C 323.668 106.696,323.598 106.963,323.598 107.614 M50.520 112.521 C 50.522 113.452,50.588 113.792,50.666 113.278 C 50.744 112.764,50.742 112.002,50.661 111.586 C 50.581 111.170,50.517 111.591,50.520 112.521 M323.955 113.198 C 323.957 114.129,324.023 114.469,324.101 113.955 C 324.178 113.440,324.176 112.679,324.096 112.263 C 324.016 111.846,323.952 112.267,323.955 113.198 M331.050 114.213 C 331.054 114.958,331.123 115.222,331.204 114.801 C 331.285 114.381,331.282 113.771,331.197 113.448 C 331.112 113.124,331.046 113.469,331.050 114.213 M96.366 114.960 C 96.787 115.041,97.396 115.038,97.720 114.953 C 98.043 114.869,97.699 114.802,96.954 114.806 C 96.210 114.810,95.945 114.879,96.366 114.960 M284.183 114.960 C 284.604 115.041,285.213 115.038,285.537 114.953 C 285.860 114.869,285.516 114.802,284.772 114.806 C 284.027 114.810,283.762 114.879,284.183 114.960 M83.807 115.313 C 83.721 115.453,84.892 115.526,86.410 115.476 C 91.385 115.311,91.947 115.178,87.922 115.118 C 85.746 115.086,83.894 115.173,83.807 115.313 M293.886 115.307 C 297.421 115.409,297.769 115.477,297.908 116.090 C 298.030 116.630,298.051 116.612,298.015 115.995 C 297.971 115.246,297.881 115.228,293.993 115.212 L 290.016 115.195 293.886 115.307 M57.293 119.459 C 57.293 120.482,57.356 120.901,57.434 120.389 C 57.511 119.877,57.511 119.040,57.434 118.528 C 57.356 118.016,57.293 118.435,57.293 119.459 M50.210 122.843 C 50.210 124.797,50.266 125.596,50.334 124.619 C 50.402 123.642,50.402 122.043,50.334 121.066 C 50.266 120.089,50.210 120.888,50.210 122.843 M324.343 129.272 C 324.343 134.019,324.391 135.960,324.449 133.587 C 324.507 131.214,324.507 127.331,324.449 124.958 C 324.391 122.585,324.343 124.526,324.343 129.272 M103.134 121.390 C 103.555 121.471,104.164 121.468,104.488 121.383 C 104.811 121.298,104.467 121.232,103.723 121.236 C 102.978 121.240,102.713 121.309,103.134 121.390 M277.415 121.390 C 277.836 121.471,278.445 121.468,278.769 121.383 C 279.092 121.298,278.748 121.232,278.003 121.236 C 277.259 121.240,276.994 121.309,277.415 121.390 M99.577 121.722 C 99.903 121.807,100.436 121.807,100.761 121.722 C 101.087 121.637,100.821 121.568,100.169 121.568 C 99.518 121.568,99.251 121.637,99.577 121.722 M280.964 121.722 C 281.290 121.807,281.823 121.807,282.149 121.722 C 282.475 121.637,282.208 121.568,281.557 121.568 C 280.905 121.568,280.639 121.637,280.964 121.722 M94.162 122.074 C 94.860 122.147,96.003 122.147,96.701 122.074 C 97.398 122.001,96.827 121.941,95.431 121.941 C 94.036 121.941,93.464 122.001,94.162 122.074 M285.025 122.074 C 285.723 122.147,286.865 122.147,287.563 122.074 C 288.261 122.001,287.690 121.941,286.294 121.941 C 284.898 121.941,284.327 122.001,285.025 122.074 M90.149 122.649 C 90.047 122.914,90.020 123.486,90.089 123.918 C 90.182 124.496,90.261 124.368,90.387 123.435 C 90.564 122.121,90.470 121.811,90.149 122.649 M291.449 123.858 C 291.449 124.509,291.519 124.776,291.604 124.450 C 291.689 124.124,291.689 123.591,291.604 123.266 C 291.519 122.940,291.449 123.206,291.449 123.858 M331.436 127.411 C 331.437 130.017,331.490 131.038,331.554 129.681 C 331.619 128.323,331.618 126.191,331.553 124.943 C 331.489 123.695,331.436 124.805,331.436 127.411 M82.664 127.919 C 82.664 128.756,82.730 129.099,82.811 128.680 C 82.891 128.261,82.891 127.576,82.811 127.157 C 82.730 126.739,82.664 127.081,82.664 127.919 M89.757 128.596 C 89.757 129.247,89.827 129.514,89.912 129.188 C 89.997 128.862,89.997 128.329,89.912 128.003 C 89.827 127.678,89.757 127.944,89.757 128.596 M291.787 128.934 C 291.787 129.585,291.857 129.852,291.942 129.526 C 292.027 129.201,292.027 128.668,291.942 128.342 C 291.857 128.016,291.787 128.283,291.787 128.934 M298.908 130.626 C 298.908 131.464,298.974 131.806,299.054 131.387 C 299.135 130.969,299.135 130.283,299.054 129.865 C 298.974 129.446,298.908 129.788,298.908 130.626 M50.210 135.025 C 50.210 136.980,50.266 137.779,50.334 136.802 C 50.402 135.825,50.402 134.226,50.334 133.249 C 50.266 132.272,50.210 133.071,50.210 135.025 M82.372 140.271 C 82.372 143.435,82.422 144.775,82.485 143.248 C 82.548 141.722,82.548 139.133,82.486 137.495 C 82.424 135.858,82.372 137.107,82.372 140.271 M57.302 137.563 C 57.304 138.866,57.365 139.358,57.438 138.656 C 57.511 137.954,57.510 136.888,57.435 136.287 C 57.361 135.686,57.301 136.261,57.302 137.563 M89.464 138.579 C 89.465 140.440,89.521 141.158,89.590 140.175 C 89.659 139.191,89.658 137.669,89.588 136.791 C 89.519 135.913,89.463 136.717,89.464 138.579 M292.183 140.948 C 292.183 143.739,292.236 144.837,292.299 143.386 C 292.363 141.935,292.362 139.650,292.298 138.309 C 292.234 136.969,292.182 138.156,292.183 140.948 M185.903 140.271 C 185.904 141.760,185.964 142.327,186.035 141.531 C 186.107 140.735,186.106 139.517,186.033 138.824 C 185.960 138.130,185.902 138.782,185.903 140.271 M299.268 142.132 C 299.268 143.528,299.327 144.099,299.400 143.401 C 299.474 142.703,299.474 141.561,299.400 140.863 C 299.327 140.165,299.268 140.736,299.268 142.132 M331.043 141.455 C 331.043 142.107,331.113 142.373,331.198 142.047 C 331.283 141.722,331.283 141.189,331.198 140.863 C 331.113 140.537,331.043 140.804,331.043 141.455 M50.502 143.486 C 50.502 144.137,50.571 144.404,50.656 144.078 C 50.741 143.752,50.741 143.219,50.656 142.893 C 50.571 142.568,50.502 142.834,50.502 143.486 M210.491 146.189 L 210.491 149.568 198.562 149.662 L 186.633 149.755 198.731 149.835 L 210.829 149.915 210.829 146.362 C 210.829 144.408,210.753 142.809,210.660 142.809 C 210.567 142.809,210.491 144.330,210.491 146.189 M323.936 144.162 C 323.936 144.814,324.006 145.080,324.091 144.755 C 324.176 144.429,324.176 143.896,324.091 143.570 C 324.006 143.245,323.936 143.511,323.936 144.162 M57.608 144.839 C 57.608 145.491,57.678 145.757,57.763 145.431 C 57.848 145.106,57.848 144.573,57.763 144.247 C 57.678 143.921,57.608 144.188,57.608 144.839 M177.919 145.033 C 176.607 145.745,176.755 145.990,178.088 145.313 C 179.364 144.664,179.589 144.496,179.160 144.514 C 178.989 144.522,178.431 144.755,177.919 145.033 M89.442 146.870 C 89.442 147.893,89.505 148.312,89.582 147.800 C 89.660 147.288,89.660 146.451,89.582 145.939 C 89.505 145.427,89.442 145.846,89.442 146.870 M298.894 151.946 C 298.894 152.597,298.964 152.864,299.049 152.538 C 299.134 152.212,299.134 151.679,299.049 151.354 C 298.964 151.028,298.894 151.294,298.894 151.946 M82.664 153.299 C 82.664 154.137,82.730 154.480,82.811 154.061 C 82.891 153.642,82.891 152.957,82.811 152.538 C 82.730 152.119,82.664 152.462,82.664 153.299 M291.787 153.299 C 291.787 153.951,291.857 154.217,291.942 153.892 C 292.027 153.566,292.027 153.033,291.942 152.707 C 291.857 152.382,291.787 152.648,291.787 153.299 M89.764 154.484 C 89.768 155.228,89.837 155.493,89.918 155.072 C 89.999 154.651,89.996 154.042,89.911 153.719 C 89.826 153.395,89.760 153.739,89.764 154.484 M189.241 175.885 C 190.489 175.950,192.621 175.950,193.978 175.886 C 195.336 175.822,194.315 175.769,191.709 175.768 C 189.103 175.768,187.992 175.820,189.241 175.885 M202.059 177.453 C 202.407 177.764,204.399 178.680,204.399 178.528 C 204.399 178.333,202.523 177.327,202.160 177.327 C 202.027 177.327,201.981 177.383,202.059 177.453 M178.680 180.880 C 179.146 181.146,179.679 181.363,179.865 181.363 C 180.051 181.363,179.822 181.146,179.357 180.880 C 178.892 180.614,178.359 180.396,178.173 180.396 C 177.986 180.396,178.215 180.614,178.680 180.880 M189.594 182.992 C 190.850 183.057,192.906 183.057,194.162 182.992 C 195.419 182.927,194.391 182.874,191.878 182.874 C 189.365 182.874,188.338 182.927,189.594 182.992 M194.670 208.694 C 194.996 208.779,195.529 208.779,195.854 208.694 C 196.180 208.608,195.914 208.539,195.262 208.539 C 194.611 208.539,194.344 208.608,194.670 208.694 M178.412 215.817 L 185.759 215.918 185.879 218.365 L 185.999 220.812 185.977 218.274 L 185.956 215.736 178.511 215.726 L 171.066 215.717 178.412 215.817 M193.655 215.809 C 194.167 215.887,195.004 215.887,195.516 215.809 C 196.028 215.732,195.609 215.668,194.585 215.668 C 193.562 215.668,193.143 215.732,193.655 215.809 M122.504 237.669 C 122.504 237.728,122.999 238.223,123.604 238.769 L 124.704 239.763 123.710 238.663 C 122.783 237.638,122.504 237.408,122.504 237.669 M258.016 238.663 L 257.022 239.763 258.122 238.769 C 258.727 238.223,259.222 237.728,259.222 237.669 C 259.222 237.408,258.942 237.638,258.016 238.663 M130.795 246.701 C 132.276 248.190,133.563 249.408,133.656 249.408 C 133.749 249.408,132.614 248.190,131.134 246.701 C 129.653 245.212,128.366 243.993,128.273 243.993 C 128.180 243.993,129.315 245.212,130.795 246.701 M247.035 250.338 L 240.778 256.684 247.124 250.426 C 250.613 246.985,253.469 244.130,253.469 244.081 C 253.469 243.840,252.849 244.443,247.035 250.338 M122.504 248.223 C 123.136 248.875,123.728 249.408,123.821 249.408 C 123.914 249.408,123.474 248.875,122.843 248.223 C 122.211 247.572,121.618 247.039,121.525 247.039 C 121.432 247.039,121.873 247.572,122.504 248.223 M257.518 249.662 L 255.668 251.607 257.614 249.758 C 259.422 248.039,259.715 247.716,259.464 247.716 C 259.411 247.716,258.535 248.591,257.518 249.662 M139.255 255.161 C 140.923 256.836,142.363 258.206,142.456 258.206 C 142.549 258.206,141.261 256.836,139.594 255.161 C 137.927 253.486,136.486 252.115,136.393 252.115 C 136.300 252.115,137.588 253.486,139.255 255.161 M129.780 255.838 C 131.634 257.699,133.228 259.222,133.321 259.222 C 133.414 259.222,131.973 257.699,130.118 255.838 C 128.264 253.976,126.671 252.453,126.578 252.453 C 126.485 252.453,127.926 253.976,129.780 255.838 M251.586 255.922 L 250.592 257.022 251.692 256.028 C 252.297 255.481,252.792 254.986,252.792 254.928 C 252.792 254.667,252.513 254.897,251.586 255.922 M236.868 260.152 L 235.702 261.421 236.971 260.255 C 238.152 259.170,238.396 258.883,238.137 258.883 C 238.081 258.883,237.510 259.454,236.868 260.152 M105.753 260.575 C 106.480 261.320,107.151 261.929,107.244 261.929 C 107.337 261.929,106.818 261.320,106.091 260.575 C 105.364 259.831,104.693 259.222,104.600 259.222 C 104.507 259.222,105.026 259.831,105.753 260.575 M145.008 260.575 C 145.735 261.320,146.406 261.929,146.499 261.929 C 146.593 261.929,146.074 261.320,145.347 260.575 C 144.620 259.831,143.949 259.222,143.856 259.222 C 143.763 259.222,144.281 259.831,145.008 260.575 M245.337 261.844 L 243.147 264.129 245.431 261.939 C 246.688 260.734,247.716 259.706,247.716 259.654 C 247.716 259.405,247.371 259.723,245.337 261.844 M274.432 261.844 L 273.266 263.113 274.535 261.947 C 275.233 261.306,275.804 260.735,275.804 260.678 C 275.804 260.420,275.517 260.663,274.432 261.844 M137.563 263.283 C 138.290 264.027,138.961 264.636,139.054 264.636 C 139.148 264.636,138.629 264.027,137.902 263.283 C 137.175 262.538,136.504 261.929,136.411 261.929 C 136.318 261.929,136.836 262.538,137.563 263.283 M148.900 264.129 C 149.532 264.780,150.124 265.313,150.217 265.313 C 150.310 265.313,149.870 264.780,149.239 264.129 C 148.607 263.477,148.014 262.944,147.921 262.944 C 147.828 262.944,148.269 263.477,148.900 264.129 M232.635 264.044 L 231.641 265.144 232.741 264.150 C 233.346 263.603,233.841 263.108,233.841 263.050 C 233.841 262.789,233.562 263.019,232.635 264.044 M115.398 270.558 C 119.210 274.374,122.405 277.496,122.498 277.496 C 122.591 277.496,119.548 274.374,115.736 270.558 C 111.924 266.743,108.729 263.621,108.636 263.621 C 108.543 263.621,111.585 266.743,115.398 270.558 M280.689 265.398 L 279.695 266.497 280.795 265.504 C 281.400 264.957,281.895 264.462,281.895 264.404 C 281.895 264.142,281.616 264.372,280.689 265.398 M239.932 266.836 C 239.110 267.673,238.514 268.359,238.607 268.359 C 238.700 268.359,239.449 267.673,240.271 266.836 C 241.093 265.998,241.689 265.313,241.596 265.313 C 241.503 265.313,240.754 265.998,239.932 266.836 M141.624 267.005 C 142.351 267.750,143.022 268.359,143.115 268.359 C 143.208 268.359,142.690 267.750,141.963 267.005 C 141.236 266.261,140.565 265.651,140.472 265.651 C 140.379 265.651,140.897 266.261,141.624 267.005 M152.792 267.682 C 153.519 268.426,154.190 269.036,154.283 269.036 C 154.376 269.036,153.857 268.426,153.130 267.682 C 152.403 266.937,151.732 266.328,151.639 266.328 C 151.546 266.328,152.065 266.937,152.792 267.682 M104.399 269.374 C 105.692 270.677,106.826 271.743,106.919 271.743 C 107.012 271.743,106.031 270.677,104.738 269.374 C 103.445 268.071,102.311 267.005,102.218 267.005 C 102.125 267.005,103.106 268.071,104.399 269.374 M265.139 271.489 L 260.745 275.973 265.228 271.578 C 269.394 267.496,269.866 267.005,269.623 267.005 C 269.574 267.005,267.556 269.023,265.139 271.489 M275.804 270.558 C 274.417 271.954,273.359 273.096,273.452 273.096 C 273.545 273.096,274.756 271.954,276.142 270.558 C 277.529 269.162,278.587 268.020,278.494 268.020 C 278.401 268.020,277.190 269.162,275.804 270.558 M145.516 270.558 C 146.147 271.210,146.740 271.743,146.833 271.743 C 146.926 271.743,146.486 271.210,145.854 270.558 C 145.223 269.907,144.630 269.374,144.537 269.374 C 144.444 269.374,144.885 269.907,145.516 270.558 M225.529 270.474 L 224.535 271.574 225.635 270.580 C 226.239 270.033,226.734 269.538,226.734 269.480 C 226.734 269.218,226.455 269.449,225.529 270.474 M236.019 270.474 L 235.025 271.574 236.125 270.580 C 236.730 270.033,237.225 269.538,237.225 269.480 C 237.225 269.218,236.946 269.449,236.019 270.474 M155.668 270.157 C 155.668 270.215,156.163 270.710,156.768 271.256 L 157.868 272.250 156.874 271.151 C 155.948 270.125,155.668 269.895,155.668 270.157 M148.900 273.604 C 149.532 274.255,150.124 274.788,150.217 274.788 C 150.310 274.788,149.870 274.255,149.239 273.604 C 148.607 272.953,148.014 272.420,147.921 272.420 C 147.828 272.420,148.269 272.953,148.900 273.604 M232.469 273.689 L 231.303 274.958 232.572 273.791 C 233.753 272.706,233.997 272.420,233.738 272.420 C 233.682 272.420,233.111 272.991,232.469 273.689 M159.052 273.202 C 159.052 273.261,159.547 273.756,160.152 274.302 L 161.252 275.296 160.258 274.196 C 159.332 273.171,159.052 272.941,159.052 273.202 M111.661 276.904 C 113.063 278.398,113.367 278.666,113.367 278.412 C 113.367 278.358,112.644 277.635,111.760 276.805 L 110.152 275.296 111.661 276.904 M152.609 276.904 C 154.011 278.398,154.315 278.666,154.315 278.412 C 154.315 278.358,153.591 277.635,152.707 276.805 L 151.100 275.296 152.609 276.904 M228.918 276.904 L 227.580 278.342 229.019 277.004 C 230.356 275.760,230.612 275.465,230.356 275.465 C 230.301 275.465,229.654 276.113,228.918 276.904 M163.113 276.988 C 163.745 277.640,164.338 278.173,164.431 278.173 C 164.524 278.173,164.083 277.640,163.452 276.988 C 162.820 276.337,162.228 275.804,162.135 275.804 C 162.042 275.804,162.482 276.337,163.113 276.988 M218.422 276.904 L 217.428 278.003 218.528 277.009 C 219.133 276.463,219.628 275.968,219.628 275.910 C 219.628 275.648,219.349 275.878,218.422 276.904 M269.522 277.242 L 268.528 278.342 269.628 277.348 C 270.233 276.801,270.728 276.306,270.728 276.248 C 270.728 275.987,270.448 276.217,269.522 277.242 M225.024 280.457 L 223.858 281.726 225.127 280.560 C 226.308 279.474,226.552 279.188,226.293 279.188 C 226.237 279.188,225.666 279.759,225.024 280.457 M157.008 280.964 C 158.410 282.459,158.714 282.727,158.714 282.473 C 158.714 282.419,157.991 281.696,157.107 280.866 L 155.499 279.357 157.008 280.964 M255.314 280.964 L 253.976 282.403 255.415 281.065 C 256.752 279.821,257.008 279.526,256.752 279.526 C 256.697 279.526,256.050 280.173,255.314 280.964 M168.190 281.726 C 169.200 282.750,170.104 283.587,170.197 283.587 C 170.290 283.587,169.539 282.750,168.528 281.726 C 167.517 280.702,166.614 279.865,166.521 279.865 C 166.428 279.865,167.179 280.702,168.190 281.726 M213.198 281.726 C 212.376 282.563,211.780 283.249,211.873 283.249 C 211.966 283.249,212.714 282.563,213.536 281.726 C 214.358 280.888,214.955 280.203,214.862 280.203 C 214.769 280.203,214.020 280.888,213.198 281.726 M263.781 282.657 L 261.421 285.110 263.875 282.750 C 266.154 280.558,266.483 280.203,266.235 280.203 C 266.183 280.203,265.079 281.307,263.781 282.657 M118.613 283.587 C 120.093 285.076,121.380 286.294,121.473 286.294 C 121.566 286.294,120.431 285.076,118.951 283.587 C 117.471 282.098,116.183 280.880,116.090 280.880 C 115.997 280.880,117.132 282.098,118.613 283.587 M127.411 282.234 C 128.138 282.978,128.809 283.587,128.902 283.587 C 128.995 283.587,128.477 282.978,127.750 282.234 C 127.023 281.489,126.352 280.880,126.259 280.880 C 126.166 280.880,126.684 281.489,127.411 282.234 M220.631 284.518 L 218.782 286.464 220.728 284.614 C 222.535 282.896,222.828 282.572,222.577 282.572 C 222.524 282.572,221.649 283.448,220.631 284.518 M162.098 285.787 C 163.297 286.997,164.354 287.986,164.447 287.986 C 164.541 287.986,163.636 286.997,162.437 285.787 C 161.237 284.577,160.180 283.587,160.087 283.587 C 159.994 283.587,160.899 284.577,162.098 285.787 M250.743 285.195 L 249.577 286.464 250.846 285.297 C 252.027 284.212,252.271 283.926,252.012 283.926 C 251.956 283.926,251.385 284.497,250.743 285.195 M131.810 286.294 C 132.537 287.039,133.208 287.648,133.301 287.648 C 133.395 287.648,132.876 287.039,132.149 286.294 C 131.422 285.550,130.751 284.941,130.658 284.941 C 130.565 284.941,131.084 285.550,131.810 286.294 M176.819 290.017 C 179.233 292.437,181.285 294.416,181.378 294.416 C 181.471 294.416,179.572 292.437,177.157 290.017 C 174.743 287.597,172.692 285.618,172.599 285.618 C 172.506 285.618,174.405 287.597,176.819 290.017 M204.394 290.271 L 200.169 294.585 204.484 290.360 C 208.492 286.436,208.952 285.956,208.709 285.956 C 208.660 285.956,206.718 287.898,204.394 290.271 M258.206 287.817 C 257.384 288.655,256.788 289.340,256.881 289.340 C 256.974 289.340,257.723 288.655,258.545 287.817 C 259.367 286.980,259.963 286.294,259.870 286.294 C 259.777 286.294,259.028 286.980,258.206 287.817 M124.182 288.748 C 125.584 290.242,125.888 290.511,125.888 290.257 C 125.888 290.202,125.165 289.479,124.281 288.649 L 122.673 287.140 124.182 288.748 M214.542 290.271 L 212.352 292.555 214.636 290.365 C 215.893 289.161,216.920 288.133,216.920 288.081 C 216.920 287.832,216.576 288.149,214.542 290.271 M246.510 289.086 L 245.516 290.186 246.616 289.192 C 247.221 288.646,247.716 288.151,247.716 288.092 C 247.716 287.831,247.437 288.061,246.510 289.086 M135.025 289.108 C 135.025 289.166,135.520 289.661,136.125 290.207 L 137.225 291.201 136.231 290.102 C 135.305 289.076,135.025 288.846,135.025 289.108 M172.081 295.431 C 175.241 298.596,177.903 301.184,177.996 301.184 C 178.089 301.184,175.580 298.596,172.420 295.431 C 169.260 292.267,166.598 289.679,166.505 289.679 C 166.412 289.679,168.921 292.267,172.081 295.431 M253.807 291.878 C 252.985 292.716,252.389 293.401,252.482 293.401 C 252.575 293.401,253.324 292.716,254.146 291.878 C 254.968 291.041,255.564 290.355,255.471 290.355 C 255.378 290.355,254.629 291.041,253.807 291.878 M128.581 292.809 C 129.984 294.303,130.288 294.572,130.288 294.317 C 130.288 294.263,129.564 293.540,128.680 292.710 L 127.073 291.201 128.581 292.809 M242.788 292.470 L 241.794 293.570 242.893 292.576 C 243.498 292.030,243.993 291.535,243.993 291.476 C 243.993 291.215,243.714 291.445,242.788 292.470 M139.425 293.232 C 140.056 293.883,140.649 294.416,140.742 294.416 C 140.835 294.416,140.395 293.883,139.763 293.232 C 139.132 292.580,138.539 292.047,138.446 292.047 C 138.353 292.047,138.793 292.580,139.425 293.232 M249.561 295.854 L 248.223 297.293 249.662 295.955 C 250.999 294.711,251.255 294.416,250.999 294.416 C 250.944 294.416,250.297 295.063,249.561 295.854 M239.065 295.854 L 238.071 296.954 239.171 295.960 C 239.776 295.414,240.271 294.919,240.271 294.861 C 240.271 294.599,239.991 294.829,239.065 295.854 M132.657 296.616 C 133.288 297.267,133.881 297.800,133.974 297.800 C 134.067 297.800,133.626 297.267,132.995 296.616 C 132.364 295.964,131.771 295.431,131.678 295.431 C 131.585 295.431,132.025 295.964,132.657 296.616 M143.147 296.616 C 143.779 297.267,144.371 297.800,144.464 297.800 C 144.557 297.800,144.117 297.267,143.486 296.616 C 142.854 295.964,142.261 295.431,142.168 295.431 C 142.075 295.431,142.516 295.964,143.147 296.616 M184.095 297.631 C 184.726 298.283,185.319 298.816,185.412 298.816 C 185.505 298.816,185.065 298.283,184.433 297.631 C 183.802 296.980,183.209 296.447,183.116 296.447 C 183.023 296.447,183.463 296.980,184.095 297.631 M197.102 297.885 L 196.108 298.985 197.208 297.991 C 197.813 297.444,198.308 296.949,198.308 296.891 C 198.308 296.630,198.029 296.860,197.102 297.885 M235.343 299.239 L 234.349 300.338 235.448 299.344 C 236.053 298.798,236.548 298.303,236.548 298.245 C 236.548 297.983,236.269 298.213,235.343 299.239 M245.500 299.577 L 244.162 301.015 245.601 299.678 C 246.392 298.942,247.039 298.295,247.039 298.239 C 247.039 297.983,246.744 298.239,245.500 299.577 M136.210 299.831 C 136.937 300.575,137.608 301.184,137.701 301.184 C 137.794 301.184,137.275 300.575,136.548 299.831 C 135.821 299.086,135.150 298.477,135.057 298.477 C 134.964 298.477,135.483 299.086,136.210 299.831 M204.738 300.000 C 203.916 300.838,203.319 301.523,203.412 301.523 C 203.505 301.523,204.254 300.838,205.076 300.000 C 205.898 299.162,206.495 298.477,206.401 298.477 C 206.308 298.477,205.560 299.162,204.738 300.000 M146.870 300.000 C 147.501 300.651,148.094 301.184,148.187 301.184 C 148.280 301.184,147.840 300.651,147.208 300.000 C 146.577 299.349,145.984 298.816,145.891 298.816 C 145.798 298.816,146.238 299.349,146.870 300.000 M231.620 302.623 L 230.626 303.723 231.726 302.729 C 232.331 302.182,232.826 301.687,232.826 301.629 C 232.826 301.367,232.546 301.597,231.620 302.623 M139.763 303.046 C 140.395 303.697,140.987 304.230,141.080 304.230 C 141.173 304.230,140.733 303.697,140.102 303.046 C 139.470 302.394,138.877 301.861,138.784 301.861 C 138.691 301.861,139.132 302.394,139.763 303.046 M241.606 303.130 L 240.440 304.399 241.709 303.233 C 242.890 302.148,243.134 301.861,242.875 301.861 C 242.819 301.861,242.248 302.432,241.606 303.130 M150.592 303.384 C 151.224 304.036,151.816 304.569,151.909 304.569 C 152.002 304.569,151.562 304.036,150.931 303.384 C 150.299 302.733,149.706 302.200,149.613 302.200 C 149.520 302.200,149.961 302.733,150.592 303.384 M191.688 303.976 L 190.694 305.076 191.794 304.082 C 192.398 303.536,192.893 303.041,192.893 302.982 C 192.893 302.721,192.614 302.951,191.688 303.976 M180.711 304.399 C 181.342 305.051,181.935 305.584,182.028 305.584 C 182.121 305.584,181.680 305.051,181.049 304.399 C 180.418 303.748,179.825 303.215,179.732 303.215 C 179.639 303.215,180.079 303.748,180.711 304.399 M200.825 304.315 L 199.831 305.415 200.931 304.421 C 201.536 303.874,202.030 303.379,202.030 303.321 C 202.030 303.059,201.751 303.290,200.825 304.315 M227.897 306.007 L 226.904 307.107 228.003 306.113 C 228.608 305.566,229.103 305.071,229.103 305.013 C 229.103 304.751,228.824 304.982,227.897 306.007 M238.222 306.176 L 237.056 307.445 238.325 306.279 C 239.506 305.193,239.750 304.907,239.491 304.907 C 239.435 304.907,238.863 305.478,238.222 306.176 M143.486 306.430 C 144.117 307.081,144.710 307.614,144.803 307.614 C 144.896 307.614,144.455 307.081,143.824 306.430 C 143.193 305.778,142.600 305.245,142.507 305.245 C 142.414 305.245,142.854 305.778,143.486 306.430 M154.315 306.768 C 154.946 307.420,155.539 307.953,155.632 307.953 C 155.725 307.953,155.285 307.420,154.653 306.768 C 154.022 306.117,153.429 305.584,153.336 305.584 C 153.243 305.584,153.683 306.117,154.315 306.768 M234.838 309.222 L 233.672 310.491 234.941 309.324 C 236.122 308.239,236.365 307.953,236.107 307.953 C 236.050 307.953,235.479 308.524,234.838 309.222 M147.039 309.645 C 147.766 310.389,148.437 310.998,148.530 310.998 C 148.623 310.998,148.104 310.389,147.377 309.645 C 146.650 308.900,145.979 308.291,145.886 308.291 C 145.793 308.291,146.312 308.900,147.039 309.645 M224.009 309.560 L 222.843 310.829 224.112 309.663 C 225.293 308.577,225.536 308.291,225.278 308.291 C 225.221 308.291,224.650 308.862,224.009 309.560 M158.206 310.321 C 158.933 311.066,159.604 311.675,159.697 311.675 C 159.790 311.675,159.272 311.066,158.545 310.321 C 157.818 309.577,157.147 308.968,157.054 308.968 C 156.961 308.968,157.479 309.577,158.206 310.321 M231.454 312.267 L 230.288 313.536 231.557 312.370 C 232.738 311.285,232.981 310.998,232.723 310.998 C 232.666 310.998,232.095 311.569,231.454 312.267 M150.761 313.029 C 151.488 313.773,152.159 314.382,152.252 314.382 C 152.345 314.382,151.827 313.773,151.100 313.029 C 150.373 312.284,149.702 311.675,149.609 311.675 C 149.516 311.675,150.034 312.284,150.761 313.029 M219.628 313.536 C 218.806 314.374,218.209 315.059,218.302 315.059 C 218.395 315.059,219.144 314.374,219.966 313.536 C 220.788 312.699,221.385 312.014,221.292 312.014 C 221.198 312.014,220.450 312.699,219.628 313.536 M163.283 315.059 C 164.575 316.362,165.709 317.428,165.802 317.428 C 165.896 317.428,164.914 316.362,163.621 315.059 C 162.328 313.756,161.194 312.690,161.101 312.690 C 161.008 312.690,161.990 313.756,163.283 315.059 M227.229 316.159 L 225.550 317.936 227.327 316.256 C 228.304 315.333,229.103 314.533,229.103 314.480 C 229.103 314.227,228.790 314.508,227.229 316.159 M155.499 317.428 C 156.416 318.359,157.242 319.120,157.335 319.120 C 157.428 319.120,156.754 318.359,155.838 317.428 C 154.921 316.497,154.095 315.736,154.002 315.736 C 153.909 315.736,154.583 316.497,155.499 317.428 M210.660 322.166 C 208.432 324.399,206.686 326.227,206.779 326.227 C 206.872 326.227,208.771 324.399,210.998 322.166 C 213.226 319.932,214.972 318.105,214.879 318.105 C 214.786 318.105,212.888 319.932,210.660 322.166 M215.903 327.157 L 207.953 335.195 215.990 327.245 C 220.410 322.872,224.027 319.255,224.027 319.207 C 224.027 318.968,223.290 319.689,215.903 327.157 M166.667 328.257 C 170.572 332.166,173.843 335.364,173.936 335.364 C 174.029 335.364,170.910 332.166,167.005 328.257 C 163.100 324.349,159.828 321.151,159.735 321.151 C 159.642 321.151,162.761 324.349,166.667 328.257 M177.665 329.442 C 178.864 330.651,179.921 331.641,180.014 331.641 C 180.107 331.641,179.202 330.651,178.003 329.442 C 176.804 328.232,175.747 327.242,175.654 327.242 C 175.561 327.242,176.466 328.232,177.665 329.442 M201.845 331.387 L 200.508 332.826 201.946 331.488 C 203.283 330.244,203.540 329.949,203.284 329.949 C 203.228 329.949,202.581 330.596,201.845 331.387 M182.572 334.687 C 183.299 335.431,183.970 336.041,184.063 336.041 C 184.156 336.041,183.637 335.431,182.910 334.687 C 182.183 333.942,181.512 333.333,181.419 333.333 C 181.326 333.333,181.845 333.942,182.572 334.687 M176.650 338.579 C 177.281 339.230,177.874 339.763,177.967 339.763 C 178.060 339.763,177.620 339.230,176.988 338.579 C 176.357 337.927,175.764 337.394,175.671 337.394 C 175.578 337.394,176.018 337.927,176.650 338.579 M204.547 338.832 L 203.553 339.932 204.653 338.938 C 205.258 338.392,205.753 337.897,205.753 337.839 C 205.753 337.577,205.474 337.807,204.547 338.832 M48.143 377.231 C 48.658 377.309,49.419 377.307,49.835 377.226 C 50.252 377.146,49.831 377.082,48.900 377.085 C 47.970 377.087,47.629 377.153,48.143 377.231 M109.052 377.221 C 109.378 377.307,109.911 377.307,110.237 377.221 C 110.563 377.136,110.296 377.067,109.645 377.067 C 108.993 377.067,108.727 377.136,109.052 377.221 M248.880 377.514 C 248.234 378.032,248.234 378.036,248.900 377.729 C 249.272 377.558,249.805 377.333,250.085 377.230 C 250.523 377.067,250.520 377.038,250.065 377.015 C 249.775 377.000,249.242 377.225,248.880 377.514 M180.964 377.580 C 184.361 377.635,189.920 377.635,193.316 377.580 C 196.713 377.525,193.934 377.480,187.140 377.480 C 180.347 377.480,177.568 377.525,180.964 377.580 M246.862 408.799 C 246.862 424.526,246.904 430.960,246.954 423.096 C 247.005 415.233,247.005 402.365,246.954 394.501 C 246.904 386.637,246.862 393.071,246.862 408.799 M289.155 392.724 C 289.155 399.611,289.200 402.380,289.255 398.878 C 289.310 395.376,289.310 389.741,289.255 386.357 C 289.200 382.972,289.155 385.838,289.155 392.724 M297.285 408.968 C 297.285 424.602,297.327 430.949,297.377 423.071 C 297.428 415.193,297.428 402.401,297.377 394.645 C 297.327 386.888,297.285 393.333,297.285 408.968 M254.975 393.063 C 254.975 399.763,255.020 402.552,255.076 399.261 C 255.131 395.969,255.131 390.487,255.076 387.078 C 255.020 383.669,254.975 386.362,254.975 393.063 M198.731 385.343 C 199.057 385.428,199.590 385.428,199.915 385.343 C 200.241 385.258,199.975 385.188,199.323 385.188 C 198.672 385.188,198.405 385.258,198.731 385.343 M185.046 409.729 C 187.896 409.785,192.465 409.785,195.199 409.728 C 197.932 409.672,195.601 409.625,190.017 409.625 C 184.433 409.626,182.196 409.672,185.046 409.729 M254.903 424.958 L 254.983 437.394 255.076 425.142 L 255.169 412.890 257.449 412.772 L 259.729 412.654 257.276 412.587 L 254.822 412.521 254.903 424.958 M289.155 425.042 C 289.155 431.836,289.200 434.615,289.255 431.218 C 289.310 427.821,289.310 422.263,289.255 418.866 C 289.200 415.470,289.155 418.249,289.155 425.042 M42.915 416.835 C 46.324 416.891,51.806 416.891,55.098 416.835 C 58.390 416.780,55.601 416.735,48.900 416.735 C 42.200 416.735,39.507 416.780,42.915 416.835 M184.349 417.512 C 186.815 417.570,190.850 417.570,193.316 417.512 C 195.783 417.454,193.765 417.407,188.832 417.407 C 183.900 417.407,181.882 417.454,184.349 417.512 M33.385 424.281 C 33.242 424.512,44.574 424.507,58.883 424.271 C 61.954 424.220,57.509 424.145,49.005 424.103 C 40.500 424.061,33.472 424.141,33.385 424.281 M145.751 439.097 C 145.229 439.556,144.936 439.932,145.100 439.932 C 145.264 439.932,145.756 439.552,146.193 439.086 C 147.204 438.010,146.981 438.015,145.751 439.097 M173.522 439.848 C 173.960 440.266,174.500 440.605,174.723 440.599 C 174.945 440.593,174.822 440.420,174.450 440.213 C 174.078 440.007,173.537 439.669,173.249 439.462 C 172.961 439.255,173.083 439.429,173.522 439.848 " stroke="none" fill="#84841c" fill-rule="evenodd"></path><path id="path4" d="M173.757 28.849 L 172.420 30.288 173.858 28.950 C 175.195 27.706,175.452 27.411,175.196 27.411 C 175.140 27.411,174.493 28.058,173.757 28.849 M163.784 38.494 L 160.237 42.132 163.875 38.585 C 167.254 35.290,167.666 34.856,167.422 34.856 C 167.372 34.856,165.735 36.493,163.784 38.494 M148.389 54.230 L 141.624 61.083 148.477 54.318 C 154.844 48.032,155.483 47.377,155.242 47.377 C 155.194 47.377,152.110 50.461,148.389 54.230 M215.905 47.470 C 215.905 47.522,217.085 48.702,218.528 50.093 L 221.151 52.623 218.621 50.000 C 216.272 47.564,215.905 47.223,215.905 47.470 M230.288 51.438 C 232.515 53.672,234.414 55.499,234.507 55.499 C 234.600 55.499,232.854 53.672,230.626 51.438 C 228.398 49.205,226.500 47.377,226.407 47.377 C 226.313 47.377,228.060 49.205,230.288 51.438 M157.862 55.245 L 154.484 58.714 157.953 55.336 C 161.174 52.199,161.575 51.777,161.330 51.777 C 161.280 51.777,159.719 53.338,157.862 55.245 M238.579 59.729 C 239.778 60.939,240.835 61.929,240.928 61.929 C 241.021 61.929,240.116 60.939,238.917 59.729 C 237.718 58.519,236.661 57.530,236.568 57.530 C 236.475 57.530,237.380 58.519,238.579 59.729 M138.557 63.706 L 137.563 64.805 138.663 63.811 C 139.688 62.885,139.919 62.606,139.657 62.606 C 139.599 62.606,139.104 63.101,138.557 63.706 M177.647 64.213 L 176.481 65.482 177.750 64.316 C 178.931 63.231,179.174 62.944,178.916 62.944 C 178.859 62.944,178.288 63.515,177.647 64.213 M203.046 63.388 C 203.046 63.447,203.541 63.942,204.146 64.488 L 205.245 65.482 204.251 64.382 C 203.325 63.357,203.046 63.127,203.046 63.388 M147.703 65.398 L 146.024 67.174 147.800 65.495 C 149.451 63.934,149.732 63.621,149.480 63.621 C 149.426 63.621,148.627 64.420,147.703 65.398 M182.046 70.305 L 180.880 71.574 182.149 70.407 C 183.330 69.322,183.574 69.036,183.315 69.036 C 183.259 69.036,182.687 69.607,182.046 70.305 M206.937 77.834 C 210.470 81.371,213.437 84.264,213.530 84.264 C 213.623 84.264,210.809 81.371,207.276 77.834 C 203.743 74.298,200.777 71.404,200.683 71.404 C 200.590 71.404,203.405 74.298,206.937 77.834 M157.694 84.179 L 152.792 89.171 157.783 84.268 C 160.529 81.572,162.775 79.326,162.775 79.277 C 162.775 79.035,162.249 79.542,157.694 84.179 M223.684 84.010 C 226.194 86.569,228.288 88.663,228.337 88.663 C 228.580 88.663,228.096 88.160,223.773 83.921 L 219.120 79.357 223.684 84.010 M162.602 89.763 L 156.176 96.277 162.690 89.851 C 168.743 83.880,169.358 83.249,169.117 83.249 C 169.068 83.249,166.137 86.180,162.602 89.763 M149.048 92.470 L 148.054 93.570 149.154 92.576 C 150.179 91.650,150.409 91.371,150.148 91.371 C 150.090 91.371,149.595 91.865,149.048 92.470 M64.894 94.656 C 65.315 94.737,65.924 94.733,66.248 94.649 C 66.571 94.564,66.227 94.498,65.482 94.502 C 64.738 94.505,64.473 94.575,64.894 94.656 M223.689 94.522 C 223.689 94.580,224.184 95.075,224.788 95.622 L 225.888 96.616 224.894 95.516 C 223.968 94.491,223.689 94.261,223.689 94.522 M315.655 94.656 C 316.076 94.737,316.685 94.733,317.009 94.649 C 317.333 94.564,316.988 94.498,316.244 94.502 C 315.499 94.505,315.234 94.575,315.655 94.656 M53.225 95.004 C 54.115 95.074,55.485 95.073,56.271 95.002 C 57.056 94.931,56.328 94.874,54.653 94.875 C 52.978 94.876,52.335 94.934,53.225 95.004 M325.645 95.004 C 326.534 95.074,327.905 95.073,328.690 95.002 C 329.476 94.931,328.748 94.874,327.073 94.875 C 325.398 94.876,324.755 94.934,325.645 95.004 M330.380 100.169 C 330.380 101.007,330.446 101.349,330.526 100.931 C 330.607 100.512,330.607 99.827,330.526 99.408 C 330.446 98.989,330.380 99.332,330.380 100.169 M59.649 102.442 C 60.164 102.520,60.925 102.518,61.341 102.438 C 61.758 102.358,61.337 102.294,60.406 102.296 C 59.475 102.299,59.135 102.365,59.649 102.442 M320.563 102.442 C 321.077 102.520,321.839 102.518,322.255 102.438 C 322.671 102.358,322.250 102.294,321.320 102.296 C 320.389 102.299,320.049 102.365,320.563 102.442 M330.718 104.907 C 330.718 105.745,330.784 106.087,330.865 105.668 C 330.946 105.250,330.946 104.564,330.865 104.146 C 330.784 103.727,330.718 104.069,330.718 104.907 M58.292 105.076 C 58.296 105.821,58.365 106.085,58.446 105.664 C 58.527 105.243,58.524 104.634,58.439 104.311 C 58.354 103.987,58.288 104.332,58.292 105.076 M57.960 109.645 C 57.960 110.482,58.026 110.825,58.107 110.406 C 58.188 109.987,58.188 109.302,58.107 108.883 C 58.026 108.464,57.960 108.807,57.960 109.645 M331.066 109.983 C 331.066 111.007,331.129 111.426,331.207 110.914 C 331.284 110.402,331.284 109.564,331.207 109.052 C 331.129 108.541,331.066 108.959,331.066 109.983 M57.648 116.074 C 57.648 117.657,57.706 118.304,57.777 117.513 C 57.849 116.722,57.849 115.427,57.777 114.636 C 57.706 113.845,57.648 114.492,57.648 116.074 M96.870 114.616 C 97.195 114.701,97.728 114.701,98.054 114.616 C 98.380 114.531,98.113 114.461,97.462 114.461 C 96.810 114.461,96.544 114.531,96.870 114.616 M283.672 114.616 C 283.997 114.701,284.530 114.701,284.856 114.616 C 285.182 114.531,284.915 114.461,284.264 114.461 C 283.613 114.461,283.346 114.531,283.672 114.616 M85.702 114.972 C 86.959 115.037,89.014 115.037,90.271 114.972 C 91.527 114.907,90.499 114.853,87.986 114.853 C 85.474 114.853,84.446 114.907,85.702 114.972 M291.455 114.972 C 292.712 115.037,294.767 115.037,296.024 114.972 C 297.280 114.907,296.252 114.853,293.739 114.853 C 291.227 114.853,290.199 114.907,291.455 114.972 M331.408 116.582 C 331.410 117.699,331.473 118.115,331.548 117.507 C 331.623 116.898,331.622 115.985,331.545 115.476 C 331.467 114.968,331.406 115.465,331.408 116.582 M50.163 116.751 C 50.163 117.403,50.233 117.669,50.318 117.343 C 50.403 117.018,50.403 116.485,50.318 116.159 C 50.233 115.833,50.163 116.100,50.163 116.751 M298.217 117.090 C 298.217 117.741,298.287 118.008,298.372 117.682 C 298.457 117.356,298.457 116.823,298.372 116.497 C 298.287 116.172,298.217 116.438,298.217 117.090 M323.936 117.766 C 323.936 118.418,324.006 118.684,324.091 118.359 C 324.176 118.033,324.176 117.500,324.091 117.174 C 324.006 116.849,323.936 117.115,323.936 117.766 M298.562 121.320 C 298.566 122.064,298.636 122.329,298.717 121.908 C 298.797 121.487,298.794 120.878,298.710 120.554 C 298.625 120.231,298.559 120.575,298.562 121.320 M92.978 122.405 C 93.397 122.485,94.082 122.485,94.501 122.405 C 94.920 122.324,94.577 122.258,93.739 122.258 C 92.902 122.258,92.559 122.324,92.978 122.405 M287.229 122.405 C 287.650 122.486,288.259 122.483,288.583 122.398 C 288.906 122.314,288.562 122.247,287.817 122.251 C 287.073 122.255,286.808 122.324,287.229 122.405 M298.912 126.058 C 298.915 126.988,298.981 127.329,299.058 126.814 C 299.136 126.300,299.134 125.538,299.054 125.122 C 298.973 124.706,298.910 125.127,298.912 126.058 M90.109 126.904 C 90.109 127.741,90.175 128.084,90.256 127.665 C 90.336 127.246,90.336 126.561,90.256 126.142 C 90.175 125.723,90.109 126.066,90.109 126.904 M57.316 129.611 C 57.316 131.565,57.372 132.365,57.441 131.387 C 57.509 130.410,57.509 128.811,57.441 127.834 C 57.372 126.857,57.316 127.657,57.316 129.611 M89.799 133.841 C 89.798 135.516,89.855 136.244,89.926 135.459 C 89.997 134.673,89.998 133.303,89.928 132.413 C 89.858 131.523,89.800 132.166,89.799 133.841 M299.274 133.841 C 299.273 135.516,299.330 136.244,299.401 135.459 C 299.472 134.673,299.473 133.303,299.403 132.413 C 299.333 131.523,299.275 132.166,299.274 133.841 M291.787 132.995 C 291.787 133.646,291.857 133.913,291.942 133.587 C 292.027 133.261,292.027 132.728,291.942 132.403 C 291.857 132.077,291.787 132.343,291.787 132.995 M331.421 138.409 C 331.421 139.992,331.479 140.639,331.551 139.848 C 331.622 139.057,331.622 137.762,331.551 136.971 C 331.479 136.180,331.421 136.827,331.421 138.409 M57.641 140.271 C 57.642 141.574,57.703 142.065,57.777 141.363 C 57.850 140.661,57.849 139.595,57.774 138.994 C 57.699 138.393,57.639 138.968,57.641 140.271 M331.066 145.516 C 331.066 146.540,331.129 146.959,331.207 146.447 C 331.284 145.935,331.284 145.097,331.207 144.585 C 331.129 144.074,331.066 144.492,331.066 145.516 M57.965 146.701 C 57.967 147.631,58.033 147.972,58.111 147.457 C 58.189 146.943,58.187 146.181,58.106 145.765 C 58.026 145.349,57.962 145.770,57.965 146.701 M89.792 149.577 C 89.792 150.973,89.852 151.544,89.925 150.846 C 89.998 150.148,89.998 149.006,89.925 148.308 C 89.852 147.610,89.792 148.181,89.792 149.577 M299.265 149.408 C 299.267 150.711,299.328 151.202,299.401 150.500 C 299.474 149.798,299.473 148.732,299.398 148.131 C 299.323 147.530,299.264 148.105,299.265 149.408 M82.312 149.577 C 82.312 150.228,82.382 150.495,82.467 150.169 C 82.552 149.843,82.552 149.310,82.467 148.985 C 82.382 148.659,82.312 148.926,82.312 149.577 M291.794 150.085 C 291.798 150.829,291.867 151.094,291.948 150.673 C 292.029 150.252,292.026 149.643,291.941 149.319 C 291.857 148.996,291.791 149.340,291.794 150.085 M330.711 150.085 C 330.715 150.829,330.784 151.094,330.865 150.673 C 330.946 150.252,330.943 149.643,330.859 149.319 C 330.774 148.996,330.708 149.340,330.711 150.085 M192.831 150.169 C 196.240 150.224,201.722 150.224,205.014 150.169 C 208.305 150.113,205.516 150.068,198.816 150.068 C 192.115 150.068,189.422 150.114,192.831 150.169 M58.285 151.269 C 58.285 151.920,58.355 152.187,58.440 151.861 C 58.525 151.536,58.525 151.003,58.440 150.677 C 58.355 150.351,58.285 150.618,58.285 151.269 M330.373 154.146 C 330.377 154.890,330.446 155.155,330.527 154.734 C 330.608 154.313,330.605 153.704,330.520 153.380 C 330.435 153.057,330.369 153.401,330.373 154.146 M58.630 154.822 C 58.634 155.567,58.703 155.832,58.784 155.411 C 58.865 154.990,58.862 154.381,58.777 154.057 C 58.693 153.733,58.626 154.078,58.630 154.822 M298.908 155.668 C 298.908 156.506,298.974 156.849,299.054 156.430 C 299.135 156.011,299.135 155.326,299.054 154.907 C 298.974 154.488,298.908 154.831,298.908 155.668 M90.114 156.514 C 90.116 157.445,90.182 157.786,90.260 157.271 C 90.338 156.757,90.335 155.995,90.255 155.579 C 90.175 155.163,90.111 155.584,90.114 156.514 M298.556 159.729 C 298.556 160.381,298.625 160.647,298.710 160.321 C 298.796 159.996,298.796 159.463,298.710 159.137 C 298.625 158.811,298.556 159.078,298.556 159.729 M189.270 175.547 C 190.534 175.613,192.513 175.612,193.669 175.546 C 194.824 175.480,193.790 175.427,191.371 175.428 C 188.951 175.428,188.005 175.482,189.270 175.547 M214.292 194.247 C 214.292 194.898,214.361 195.165,214.446 194.839 C 214.532 194.514,214.532 193.981,214.446 193.655 C 214.361 193.329,214.292 193.596,214.292 194.247 M214.292 197.293 C 214.292 197.944,214.361 198.211,214.446 197.885 C 214.532 197.559,214.532 197.026,214.446 196.701 C 214.361 196.375,214.292 196.641,214.292 197.293 M174.535 216.158 C 176.629 216.217,180.055 216.217,182.149 216.158 C 184.243 216.098,182.530 216.050,178.342 216.050 C 174.154 216.050,172.441 216.098,174.535 216.158 M129.597 245.093 C 130.999 246.587,131.303 246.856,131.303 246.602 C 131.303 246.547,130.580 245.824,129.695 244.994 L 128.088 243.486 129.597 245.093 M246.701 250.254 C 243.075 253.883,240.184 256.853,240.277 256.853 C 240.370 256.853,243.413 253.883,247.039 250.254 C 250.665 246.624,253.555 243.655,253.462 243.655 C 253.369 243.655,250.326 246.624,246.701 250.254 M256.853 250.592 C 256.031 251.430,255.434 252.115,255.527 252.115 C 255.621 252.115,256.369 251.430,257.191 250.592 C 258.013 249.755,258.610 249.069,258.517 249.069 C 258.423 249.069,257.675 249.755,256.853 250.592 M140.609 256.176 C 141.526 257.107,142.352 257.868,142.445 257.868 C 142.538 257.868,141.864 257.107,140.948 256.176 C 140.031 255.245,139.205 254.484,139.112 254.484 C 139.019 254.484,139.693 255.245,140.609 256.176 M104.569 258.989 C 104.569 259.047,105.063 259.542,105.668 260.089 L 106.768 261.083 105.774 259.983 C 104.848 258.958,104.569 258.728,104.569 258.989 M236.530 260.152 L 235.364 261.421 236.633 260.255 C 237.331 259.614,237.902 259.043,237.902 258.986 C 237.902 258.728,237.615 258.971,236.530 260.152 M246.177 261.337 L 244.839 262.775 246.277 261.437 C 247.069 260.701,247.716 260.054,247.716 259.999 C 247.716 259.743,247.421 259.999,246.177 261.337 M274.598 261.337 L 273.604 262.437 274.704 261.443 C 275.309 260.896,275.804 260.401,275.804 260.343 C 275.804 260.081,275.524 260.312,274.598 261.337 M112.684 267.428 C 114.635 269.429,116.272 271.066,116.322 271.066 C 116.567 271.066,116.154 270.632,112.775 267.337 L 109.137 263.790 112.684 267.428 M265.139 271.151 L 260.406 275.973 265.228 271.240 C 267.881 268.636,270.051 266.466,270.051 266.417 C 270.051 266.175,269.536 266.671,265.139 271.151 M104.569 269.882 C 105.580 270.905,106.483 271.743,106.576 271.743 C 106.669 271.743,105.918 270.905,104.907 269.882 C 103.896 268.858,102.993 268.020,102.900 268.020 C 102.807 268.020,103.558 268.858,104.569 269.882 M274.788 271.912 C 273.966 272.750,273.370 273.435,273.463 273.435 C 273.556 273.435,274.305 272.750,275.127 271.912 C 275.949 271.074,276.545 270.389,276.452 270.389 C 276.359 270.389,275.611 271.074,274.788 271.912 M119.966 274.788 C 121.259 276.091,122.393 277.157,122.486 277.157 C 122.579 277.157,121.597 276.091,120.305 274.788 C 119.012 273.486,117.878 272.420,117.785 272.420 C 117.692 272.420,118.673 273.486,119.966 274.788 M218.084 276.904 L 217.090 278.003 218.190 277.009 C 218.794 276.463,219.289 275.968,219.289 275.910 C 219.289 275.648,219.010 275.878,218.084 276.904 M254.804 281.134 L 253.638 282.403 254.907 281.236 C 256.088 280.151,256.332 279.865,256.073 279.865 C 256.017 279.865,255.446 280.436,254.804 281.134 M212.860 281.726 C 212.038 282.563,211.441 283.249,211.534 283.249 C 211.627 283.249,212.376 282.563,213.198 281.726 C 214.020 280.888,214.616 280.203,214.523 280.203 C 214.430 280.203,213.682 280.888,212.860 281.726 M265.295 281.472 L 264.129 282.741 265.398 281.575 C 266.579 280.489,266.822 280.203,266.564 280.203 C 266.507 280.203,265.936 280.774,265.295 281.472 M168.866 282.064 C 169.498 282.716,170.090 283.249,170.184 283.249 C 170.277 283.249,169.836 282.716,169.205 282.064 C 168.573 281.413,167.981 280.880,167.888 280.880 C 167.794 280.880,168.235 281.413,168.866 282.064 M126.904 281.324 C 126.904 281.382,127.398 281.877,128.003 282.424 L 129.103 283.418 128.109 282.318 C 127.183 281.293,126.904 281.063,126.904 281.324 M117.752 282.995 C 119.155 284.489,119.459 284.758,119.459 284.504 C 119.459 284.449,118.735 283.726,117.851 282.896 L 116.244 281.387 117.752 282.995 M161.083 285.110 C 161.714 285.761,162.307 286.294,162.400 286.294 C 162.493 286.294,162.053 285.761,161.421 285.110 C 160.790 284.459,160.197 283.926,160.104 283.926 C 160.011 283.926,160.452 284.459,161.083 285.110 M250.233 285.364 L 249.239 286.464 250.338 285.470 C 250.943 284.923,251.438 284.428,251.438 284.370 C 251.438 284.108,251.159 284.339,250.233 285.364 M204.732 289.594 L 201.184 293.232 204.822 289.685 C 208.201 286.390,208.614 285.956,208.370 285.956 C 208.320 285.956,206.683 287.593,204.732 289.594 M174.619 287.403 C 174.619 287.454,175.799 288.634,177.242 290.025 L 179.865 292.555 177.335 289.932 C 174.986 287.496,174.619 287.155,174.619 287.403 M216.053 289.086 L 215.059 290.186 216.159 289.192 C 216.764 288.646,217.259 288.151,217.259 288.092 C 217.259 287.831,216.980 288.061,216.053 289.086 M167.513 291.201 C 168.144 291.853,168.737 292.386,168.830 292.386 C 168.923 292.386,168.482 291.853,167.851 291.201 C 167.220 290.550,166.627 290.017,166.534 290.017 C 166.441 290.017,166.881 290.550,167.513 291.201 M242.449 292.470 L 241.455 293.570 242.555 292.576 C 243.160 292.030,243.655 291.535,243.655 291.476 C 243.655 291.215,243.376 291.445,242.449 292.470 M176.311 300.000 C 176.943 300.651,177.535 301.184,177.629 301.184 C 177.722 301.184,177.281 300.651,176.650 300.000 C 176.018 299.349,175.426 298.816,175.333 298.816 C 175.239 298.816,175.680 299.349,176.311 300.000 M191.688 303.638 L 190.694 304.738 191.794 303.744 C 192.398 303.197,192.893 302.702,192.893 302.644 C 192.893 302.383,192.614 302.613,191.688 303.638 M223.837 309.391 L 222.843 310.491 223.942 309.497 C 224.547 308.950,225.042 308.455,225.042 308.397 C 225.042 308.135,224.763 308.366,223.837 309.391 M219.289 313.536 C 218.467 314.374,217.871 315.059,217.964 315.059 C 218.057 315.059,218.806 314.374,219.628 313.536 C 220.450 312.699,221.046 312.014,220.953 312.014 C 220.860 312.014,220.111 312.699,219.289 313.536 M163.776 315.144 C 165.178 316.638,165.482 316.907,165.482 316.653 C 165.482 316.598,164.759 315.875,163.875 315.045 L 162.267 313.536 163.776 315.144 M210.484 322.081 L 207.276 325.381 210.575 322.173 C 213.640 319.193,214.029 318.782,213.784 318.782 C 213.733 318.782,212.249 320.266,210.484 322.081 M222.153 321.235 L 220.474 323.012 222.250 321.333 C 223.228 320.409,224.027 319.609,224.027 319.556 C 224.027 319.303,223.714 319.584,222.153 321.235 M161.069 322.927 C 162.471 324.421,162.775 324.690,162.775 324.436 C 162.775 324.382,162.052 323.658,161.168 322.828 L 159.560 321.320 161.069 322.927 M177.496 328.934 C 178.412 329.865,179.239 330.626,179.332 330.626 C 179.425 330.626,178.751 329.865,177.834 328.934 C 176.918 328.003,176.091 327.242,175.998 327.242 C 175.905 327.242,176.579 328.003,177.496 328.934 M202.184 330.711 L 200.846 332.149 202.284 330.811 C 203.622 329.567,203.878 329.272,203.622 329.272 C 203.567 329.272,202.919 329.920,202.184 330.711 M172.250 334.179 C 172.882 334.831,173.475 335.364,173.568 335.364 C 173.661 335.364,173.220 334.831,172.589 334.179 C 171.957 333.528,171.365 332.995,171.272 332.995 C 171.179 332.995,171.619 333.528,172.250 334.179 M208.780 334.602 L 207.614 335.871 208.883 334.705 C 210.064 333.620,210.308 333.333,210.049 333.333 C 209.993 333.333,209.422 333.904,208.780 334.602 M48.312 376.889 C 48.733 376.970,49.342 376.967,49.666 376.882 C 49.989 376.798,49.645 376.731,48.900 376.735 C 48.156 376.739,47.891 376.808,48.312 376.889 M180.964 377.241 C 183.989 377.297,188.938 377.297,191.963 377.241 C 194.987 377.185,192.513 377.139,186.464 377.139 C 180.415 377.139,177.940 377.185,180.964 377.241 M113.832 384.264 C 113.833 386.311,113.889 387.105,113.956 386.028 C 114.023 384.951,114.023 383.276,113.955 382.306 C 113.887 381.335,113.831 382.217,113.832 384.264 M171.735 409.137 C 171.735 424.492,171.777 430.774,171.827 423.096 C 171.878 415.419,171.878 402.855,171.827 395.178 C 171.777 387.500,171.735 393.782,171.735 409.137 M180.187 397.462 C 180.186 404.162,180.232 406.952,180.287 403.660 C 180.342 400.368,180.342 394.886,180.287 391.477 C 180.232 388.068,180.187 390.761,180.187 397.462 M342.132 416.328 C 342.132 416.468,347.500 416.549,354.061 416.509 C 360.622 416.468,364.086 416.393,361.760 416.341 C 351.042 416.103,342.131 416.097,342.132 416.328 M180.184 427.580 C 180.184 433.164,180.230 435.496,180.287 432.762 C 180.344 430.028,180.344 425.460,180.287 422.610 C 180.230 419.760,180.184 421.997,180.184 427.580 M346.639 424.281 C 350.886 424.334,357.739 424.334,361.867 424.280 C 365.996 424.227,362.521 424.183,354.146 424.183 C 345.770 424.183,342.392 424.227,346.639 424.281 M328.515 440.848 C 328.936 440.929,329.545 440.926,329.869 440.842 C 330.192 440.757,329.848 440.691,329.103 440.694 C 328.359 440.698,328.094 440.768,328.515 440.848 M378.426 440.842 C 378.752 440.928,379.285 440.928,379.611 440.842 C 379.937 440.757,379.670 440.688,379.019 440.688 C 378.367 440.688,378.101 440.757,378.426 440.842 " stroke="none" fill="#2f2f0c" fill-rule="evenodd"></path></g></svg>